<?xml version="1.0" encoding="UTF-8"?>
<svg width="448px" height="96px" viewBox="0 0 448 96" version="1.1" xmlns="http://www.w3.org/2000/svg" xmlns:xlink="http://www.w3.org/1999/xlink">
    <title>LOGO-PURO-PAGO_bancamiga</title>
    <g id="Page-2" stroke="none" stroke-width="1" fill="none" fill-rule="evenodd">
        <g id="LOGO-PURO-PAGO_bancamiga">
            <path d="M114.8,8 C114.328402,3.66574443 110.434744,0.532916428 106.1,1 L8.1,11.58 L7.84,11.58 L115.19,11.58 L114.8,8 Z" id="Path" fill="#6EA32E" fill-rule="nonzero"></path>
            <path d="M167.05,28.08 C170.383333,30.9 172.05,34.9 172.05,40.08 C172.05,45.4133333 170.383333,49.56 167.05,52.52 C163.716667,55.48 159.05,56.9466667 153.05,56.92 L139.85,56.92 L139.85,72.71 L135,72.71 L135,23.85 L153,23.85 C159.066667,23.85 163.75,25.26 167.05,28.08 Z M163.6,49.39 C166.14,47.27 167.406667,44.2066667 167.400026,40.2 C167.393333,36.1933333 166.136667,33.2133333 163.63,31.26 C161.123333,29.2066667 157.513333,28.18 152.8,28.18 L139.8,28.18 L139.8,52.57 L152.8,52.57 C157.46,52.57 161.06,51.51 163.6,49.39 Z" id="Shape" stroke="#0D2E46" stroke-width="0.5"></path>
            <path d="M208.77,36.08 L208.77,72.69 L204,72.69 L204,64 C202.9411,66.7095175 201.046025,69.0109306 198.59,70.57 C195.957895,72.1250208 192.946707,72.921082 189.89,72.87 C185.55,72.87 182.16,71.6033333 179.72,69.07 C177.28,66.5366667 176.056667,63.0533333 176.05,58.62 L176.05,36.12 L180.8,36.12 L180.8,57.5 C180.8,60.95 181.75,63.64 183.63,65.57 C185.710681,67.5774585 188.533115,68.6281724 191.42,68.47 C194.944,68.605044 198.338927,67.1337863 200.65,64.47 C202.883333,61.7966667 204,58.3066667 204,54 L204,36 L208.77,36.08 Z" id="Path" stroke="#0D2E46" stroke-width="0.5"></path>
            <path d="M228.79,38.21 C231.229715,36.6888663 234.055191,35.9009264 236.93,35.94 L236.93,40.34 C233.485921,40.1373403 230.110669,41.363718 227.6,43.73 C225.153172,46.2628975 223.728607,49.6106252 223.6,53.13 L223.6,72.69 L218.9,72.69 L218.9,36.08 L223.59,36.08 L223.59,44.61 C224.638243,42.0010754 226.450905,39.7701074 228.79,38.21 L228.79,38.21 Z" id="Path" stroke="#0D2E46" stroke-width="0.5"></path>
            <path d="M265.16,38.28 C267.915432,39.8022851 270.190916,42.0639156 271.73,44.81 C273.338074,47.7181908 274.155262,50.9972872 274.1,54.32 C274.158448,57.67167 273.341553,60.9806116 271.73,63.92 C270.201189,66.6840933 267.924093,68.9611894 265.16,70.49 C259.210249,73.6072791 252.109751,73.6072791 246.16,70.49 C243.398198,68.9581481 241.121852,66.6818024 239.59,63.92 C237.978447,60.9806116 237.161552,57.67167 237.22,54.32 C237.164738,50.9972872 237.981926,47.7181908 239.59,44.81 C241.133323,42.0671391 243.407765,39.8065444 246.16,38.28 C252.109751,35.1627209 259.210249,35.1627209 265.16,38.28 L265.16,38.28 Z M248.53,41.81 C246.444166,43.005266 244.746556,44.7757796 243.64,46.91 C241.314862,51.6396866 241.314862,57.1803134 243.64,61.91 C244.746556,64.0442204 246.444166,65.814734 248.53,67.01 C252.9738,69.4359571 258.3462,69.4359571 262.79,67.01 C264.871312,65.8089575 266.567482,64.0399455 267.68,61.91 C269.993013,57.1775014 269.993013,51.6424986 267.68,46.91 C266.567482,44.7800545 264.871312,43.0110425 262.79,41.81 C258.3462,39.3840429 252.9738,39.3840429 248.53,41.81 L248.53,41.81 Z" id="Shape" stroke="#0D2E46" stroke-width="0.5"></path>
            <path d="M167.05,28.08 C170.383333,30.9 172.05,34.9 172.05,40.08 C172.05,45.4133333 170.383333,49.56 167.05,52.52 C163.716667,55.48 159.05,56.9466667 153.05,56.92 L139.85,56.92 L139.85,72.71 L135,72.71 L135,23.85 L153,23.85 C159.066667,23.85 163.75,25.26 167.05,28.08 Z M163.6,49.39 C166.14,47.27 167.406667,44.2066667 167.400026,40.2 C167.393333,36.1933333 166.136667,33.2133333 163.63,31.26 C161.123333,29.2066667 157.513333,28.18 152.8,28.18 L139.8,28.18 L139.8,52.57 L152.8,52.57 C157.46,52.57 161.06,51.51 163.6,49.39 Z" id="Shape" fill="#1C2D50" fill-rule="nonzero"></path>
            <path d="M208.77,36.08 L208.77,72.69 L204,72.69 L204,64 C202.9411,66.7095175 201.046025,69.0109306 198.59,70.57 C195.957895,72.1250208 192.946707,72.921082 189.89,72.87 C185.55,72.87 182.16,71.6033333 179.72,69.07 C177.28,66.5366667 176.056667,63.0533333 176.05,58.62 L176.05,36.12 L180.8,36.12 L180.8,57.5 C180.8,60.95 181.75,63.64 183.63,65.57 C185.710681,67.5774585 188.533115,68.6281724 191.42,68.47 C194.944,68.605044 198.338927,67.1337863 200.65,64.47 C202.883333,61.7966667 204,58.3066667 204,54 L204,36 L208.77,36.08 Z" id="Path" fill="#1C2D50" fill-rule="nonzero"></path>
            <path d="M228.79,38.21 C231.229715,36.6888663 234.055191,35.9009264 236.93,35.94 L236.93,40.34 C233.485921,40.1373403 230.110669,41.363718 227.6,43.73 C225.153172,46.2628975 223.728607,49.6106252 223.6,53.13 L223.6,72.69 L218.9,72.69 L218.9,36.08 L223.59,36.08 L223.59,44.61 C224.638243,42.0010754 226.450905,39.7701074 228.79,38.21 L228.79,38.21 Z" id="Path" fill="#1C2D50" fill-rule="nonzero"></path>
            <path d="M265.16,38.28 C267.915432,39.8022851 270.190916,42.0639156 271.73,44.81 C273.338074,47.7181908 274.155262,50.9972872 274.1,54.32 C274.158448,57.67167 273.341553,60.9806116 271.73,63.92 C270.201189,66.6840933 267.924093,68.9611894 265.16,70.49 C259.210249,73.6072791 252.109751,73.6072791 246.16,70.49 C243.398198,68.9581481 241.121852,66.6818024 239.59,63.92 C237.978447,60.9806116 237.161552,57.67167 237.22,54.32 C237.164738,50.9972872 237.981926,47.7181908 239.59,44.81 C241.133323,42.0671391 243.407765,39.8065444 246.16,38.28 C252.109751,35.1627209 259.210249,35.1627209 265.16,38.28 L265.16,38.28 Z M248.53,41.81 C246.444166,43.005266 244.746556,44.7757796 243.64,46.91 C241.314862,51.6396866 241.314862,57.1803134 243.64,61.91 C244.746556,64.0442204 246.444166,65.814734 248.53,67.01 C252.9738,69.4359571 258.3462,69.4359571 262.79,67.01 C264.871312,65.8089575 266.567482,64.0399455 267.68,61.91 C269.993013,57.1775014 269.993013,51.6424986 267.68,46.91 C266.567482,44.7800545 264.871312,43.0110425 262.79,41.81 C258.3462,39.3840429 252.9738,39.3840429 248.53,41.81 L248.53,41.81 Z" id="Shape" fill="#1C2D50" fill-rule="nonzero"></path>
            <path d="M167.05,28.08 C170.383333,30.9 172.05,34.9 172.05,40.08 C172.05,45.4133333 170.383333,49.56 167.05,52.52 C163.716667,55.48 159.05,56.9466667 153.05,56.92 L139.85,56.92 L139.85,72.71 L135,72.71 L135,23.85 L153,23.85 C159.066667,23.85 163.75,25.26 167.05,28.08 Z M163.6,49.39 C166.14,47.27 167.406667,44.2066667 167.400026,40.2 C167.393333,36.1933333 166.136667,33.2133333 163.63,31.26 C161.123333,29.2066667 157.513333,28.18 152.8,28.18 L139.8,28.18 L139.8,52.57 L152.8,52.57 C157.46,52.57 161.06,51.51 163.6,49.39 Z" id="Shape" fill="#1C2D50" fill-rule="nonzero"></path>
            <path d="M208.77,36.08 L208.77,72.69 L204,72.69 L204,64 C202.9411,66.7095175 201.046025,69.0109306 198.59,70.57 C195.957895,72.1250208 192.946707,72.921082 189.89,72.87 C185.55,72.87 182.16,71.6033333 179.72,69.07 C177.28,66.5366667 176.056667,63.0533333 176.05,58.62 L176.05,36.12 L180.8,36.12 L180.8,57.5 C180.8,60.95 181.75,63.64 183.63,65.57 C185.710681,67.5774585 188.533115,68.6281724 191.42,68.47 C194.944,68.605044 198.338927,67.1337863 200.65,64.47 C202.883333,61.7966667 204,58.3066667 204,54 L204,36 L208.77,36.08 Z" id="Path" fill="#1C2D50" fill-rule="nonzero"></path>
            <path d="M228.79,38.21 C231.229715,36.6888663 234.055191,35.9009264 236.93,35.94 L236.93,40.34 C233.485921,40.1373403 230.110669,41.363718 227.6,43.73 C225.153172,46.2628975 223.728607,49.6106252 223.6,53.13 L223.6,72.69 L218.9,72.69 L218.9,36.08 L223.59,36.08 L223.59,44.61 C224.638243,42.0010754 226.450905,39.7701074 228.79,38.21 L228.79,38.21 Z" id="Path" fill="#1C2D50" fill-rule="nonzero"></path>
            <path d="M265.16,38.28 C267.915432,39.8022851 270.190916,42.0639156 271.73,44.81 C273.338074,47.7181908 274.155262,50.9972872 274.1,54.32 C274.158448,57.67167 273.341553,60.9806116 271.73,63.92 C270.201189,66.6840933 267.924093,68.9611894 265.16,70.49 C259.210249,73.6072791 252.109751,73.6072791 246.16,70.49 C243.398198,68.9581481 241.121852,66.6818024 239.59,63.92 C237.978447,60.9806116 237.161552,57.67167 237.22,54.32 C237.164738,50.9972872 237.981926,47.7181908 239.59,44.81 C241.133323,42.0671391 243.407765,39.8065444 246.16,38.28 C252.109751,35.1627209 259.210249,35.1627209 265.16,38.28 L265.16,38.28 Z M248.53,41.81 C246.444166,43.005266 244.746556,44.7757796 243.64,46.91 C241.314862,51.6396866 241.314862,57.1803134 243.64,61.91 C244.746556,64.0442204 246.444166,65.814734 248.53,67.01 C252.9738,69.4359571 258.3462,69.4359571 262.79,67.01 C264.871312,65.8089575 266.567482,64.0399455 267.68,61.91 C269.993013,57.1775014 269.993013,51.6424986 267.68,46.91 C266.567482,44.7800545 264.871312,43.0110425 262.79,41.81 C258.3462,39.3840429 252.9738,39.3840429 248.53,41.81 L248.53,41.81 Z" id="Shape" fill="#1C2D50" fill-rule="nonzero"></path>
            <path d="M320.79,28.22 C324.243333,31.22 325.966667,35.4466667 325.960019,40.9 C325.960019,46.68 324.236667,51.1633333 320.79,54.35 C317.343333,57.5366667 312.5,59.1333333 306.26,59.14 L297.52,59.14 L297.52,72.69 L284.74,72.69 L284.74,23.69 L306.26,23.69 C312.5,23.7033333 317.343333,25.2133333 320.79,28.22 Z M311.67,47 C313.165977,45.5107004 313.94295,43.4460689 313.8,41.34 C313.928715,39.289248 313.14989,37.2855095 311.67,35.86 C309.983417,34.4858657 307.841424,33.7968581 305.67,33.93 L297.56,33.93 L297.56,48.93 L305.67,48.93 C307.841923,49.0671267 309.985334,48.3776626 311.67,47 Z" id="Shape" fill="#86BC25" fill-rule="nonzero"></path>
            <path d="M358,38 C360.88,40.4 362.346667,43.7666667 362.4,48.1 L362.4,72.69 L350.14,72.69 L350.14,68.43 C347.62,71.65 343.823333,73.2566667 338.75,73.2500207 C334.75,73.2500207 331.593333,72.1666667 329.28,70 C326.951096,67.7799725 325.690491,64.6648939 325.82,61.45 C325.659061,58.2172521 327.04807,55.1012666 329.56,53.06 C332.053333,51.06 335.63,50.0333333 340.29,49.98 L350.14,49.98 L350.14,49.57 C350.230191,47.9547602 349.542611,46.3937678 348.29,45.37 C346.719384,44.3003283 344.836249,43.7864261 342.94,43.91 C341.135245,43.9393253 339.341275,44.1946469 337.6,44.67 C335.53095,45.2167421 333.52114,45.9670712 331.6,46.91 L328.18,38.53 C331.019064,37.2096632 333.979621,36.1681098 337.02,35.42 C339.893287,34.7397941 342.83734,34.4040982 345.79,34.42 C351.016667,34.4066667 355.086667,35.6 358,38 Z M347.51,63.44 C348.819861,62.6516657 349.773276,61.3864205 350.17,59.91 L350.17,56.62 L342.76,56.62 C339.266667,56.62 337.52,57.9266667 337.52,60.54 C337.474772,61.7299285 337.975651,62.8753206 338.88,63.65 C339.950715,64.464973 341.27637,64.8725941 342.62,64.8 C344.338035,64.8308777 346.027522,64.3580993 347.48,63.44 L347.51,63.44 Z" id="Shape" fill="#86BC25" fill-rule="nonzero"></path>
            <path d="M403.45,34.89 L403.45,69.34 C403.519009,72.5912296 402.62106,75.7897364 400.87,78.53 C399.091555,81.2068479 396.58222,83.317049 393.64,84.61 C390.259247,86.0869455 386.598555,86.8136254 382.91,86.74 C379.810976,86.7520871 376.727339,86.3038644 373.76,85.41 C371.011039,84.6148969 368.395722,83.4150864 366,81.85 L370.33,73.25 C372.055494,74.4186699 373.937418,75.3377488 375.92,75.98 C377.881389,76.6313148 379.933328,76.9688048 382,76.98 C384.377365,77.0958903 386.722131,76.3896356 388.64,74.98 C390.260875,73.7052529 391.172033,71.730458 391.09,69.67 L391.09,65.62 C388.57,68.9533333 384.983333,70.62 380.33,70.62 C377.388024,70.6680379 374.492723,69.8809321 371.98,68.35 C369.497331,66.7952548 367.509585,64.5646781 366.25,61.92 C363.527397,55.9193601 363.50192,49.0406424 366.18,43.02 C367.407415,40.4251445 369.359178,38.2406982 371.8,36.73 C374.280827,35.2220513 377.137167,34.4455706 380.04,34.49 C382.219602,34.4560287 384.380205,34.8997544 386.37,35.79 C388.227605,36.6238366 389.849365,37.9054393 391.09,39.52 L391.09,34.91 L403.45,34.89 Z M389,59.07 C390.455485,57.2788406 391.202757,55.0156732 391.1,52.71 C391.210726,50.381863 390.463522,48.0939968 389,46.28 C387.58561,44.7147518 385.574621,43.8215373 383.465,43.8215373 C381.355379,43.8215373 379.34439,44.7147518 377.93,46.28 C376.451449,48.0723181 375.689085,50.3487214 375.79,52.67 C375.686014,54.9825813 376.449177,57.2506721 377.93,59.03 C379.313552,60.6438408 381.355482,61.5415539 383.48,61.47 C385.58979,61.5540398 387.622509,60.6702488 389,59.07 L389,59.07 Z" id="Shape" fill="#86BC25" fill-rule="nonzero"></path>
            <path d="M437.41,36.88 C440.433194,38.3963222 442.956748,40.7497873 444.68,43.66 C448.132441,49.972094 448.132441,57.607906 444.68,63.92 C442.962558,66.8348818 440.437447,69.1897996 437.41,70.7 C430.547494,73.9131662 422.612506,73.9131662 415.75,70.7 C412.729978,69.194011 410.216691,66.8371522 408.52,63.92 C405.120729,57.5944201 405.120729,49.9855799 408.52,43.66 C410.222643,40.74759 412.734328,38.3922336 415.75,36.88 C422.612506,33.6668338 430.547494,33.6668338 437.41,36.88 Z M420.71,47.12 C419.157999,49.028762 418.364055,51.4426362 418.48,53.9 C418.357975,56.3795655 419.151632,58.8174822 420.71,60.75 C422.225602,62.4081648 424.368545,63.3526882 426.615,63.3526882 C428.861455,63.3526882 431.004398,62.4081648 432.52,60.75 C434.081118,58.8184529 434.878274,56.3807205 434.76,53.9 C434.873378,51.4362671 434.063987,49.0187892 432.49,47.12 C431.00845,45.413576 428.838839,44.4627652 426.58,44.53 C424.331346,44.4560968 422.1712,45.4092106 420.71,47.12 L420.71,47.12 Z" id="Shape" fill="#86BC25" fill-rule="nonzero"></path>
            <g id="Group" opacity="0.55" style="mix-blend-mode: soft-light;" transform="translate(135.000000, 23.000000)" fill="#FFFFFF" fill-rule="nonzero">
                <path d="M37,17.06 C37,11.8866667 35.3333333,7.88666667 32,5.06 C28.6666667,2.23333333 24,0.823333333 18,0.829976471 L0,0.829976471 L0,32.72 C9.64,32.21 19.51,31.72 29.54,31.26 C30.44031,30.7570181 31.2849929,30.160377 32.06,29.48 C35.3533333,26.5666667 37,22.4266667 37,17.06 Z M17.8,29.5700312 L4.8,29.5700312 L4.8,5.18 L17.8,5.18 C22.5066667,5.18 26.1166667,6.20666667 28.63,8.26 C31.1433333,10.3133333 32.4,13.2933333 32.4,17.2 C32.4,21.2 31.1333333,24.2633333 28.6,26.39 C26.0666667,28.5166667 22.4666667,29.5766667 17.8,29.5700312 Z" id="Shape"></path>
                <polygon id="Path" points="69 13.08 69 29.69 73.75 29.53 73.75 13.08"></polygon>
                <polygon id="Path" points="45.82 13.08 41.07 13.08 41.07 30.77 45.82 30.57"></polygon>
                <path d="M101.93,17.34 L101.93,12.94 C99.0551907,12.9009264 96.2297146,13.6888663 93.79,15.21 C91.4509048,16.7701074 89.6382433,19.0010754 88.59,21.61 L88.59,13.08 L83.9,13.08 L83.9,29.22 L88.75,29.08 C89.0473716,25.9400866 90.4052512,22.9950748 92.6,20.73 C95.1106693,18.363718 98.485921,17.1373403 101.93,17.34 Z" id="Path"></path>
                <path d="M130.16,15.28 C124.210249,12.1627209 117.109751,12.1627209 111.16,15.28 C108.407765,16.8065444 106.133323,19.0671391 104.59,21.81 C103.388488,23.9458919 102.633226,26.3035316 102.37,28.74 L107.13,28.63 C107.364016,26.9815496 107.878085,25.3852289 108.65,23.91 C109.756556,21.7757796 111.454166,20.005266 113.54,18.81 C117.9838,16.3840429 123.3562,16.3840429 127.8,18.81 C129.881312,20.0110425 131.577482,21.7800545 132.69,23.91 C133.390578,25.2668408 133.876358,26.7241804 134.13,28.23 L138.87,28.23 C138.560509,25.9899454 137.838299,23.8267063 136.74,21.85 C135.20414,19.0878208 132.924512,16.8116573 130.16,15.28 Z" id="Path"></path>
                <path d="M185.79,5.22 C182.336667,2.20666667 177.493333,0.703333333 171.26,0.709977925 L149.74,0.709977925 L149.74,28.15 L151.45,28.15 C163.76,28.15 176.04,28.24 188.21,28.41 C190.144056,25.253292 191.113777,21.6003289 191,17.9 C191,12.4533333 189.263333,8.22666667 185.79,5.22 Z M176.67,24 C174.995642,25.4027953 172.851163,26.1176217 170.67,26 L162.56,26 L162.56,11 L170.67,11 C172.841424,10.8668581 174.983417,11.5558657 176.67,12.93 C178.14989,14.3555095 178.928715,16.359248 178.8,18.41 C178.922412,20.4922486 178.147021,22.5271955 176.67,24 L176.67,24 Z" id="Shape"></path>
                <path d="M223,15 C220.106667,12.6 216.053333,11.4 210.84,11.4 C207.88734,11.3840982 204.943287,11.7197941 202.07,12.4 C199.029621,13.1481098 196.069064,14.1896632 193.23,15.51 L196.65,23.89 C198.57114,22.9470712 200.58095,22.1967421 202.65,21.65 C204.391275,21.1746469 206.185245,20.9193253 207.99,20.89 C209.886249,20.7664261 211.769384,21.2803283 213.34,22.35 C214.592611,23.3737678 215.280191,24.9347602 215.19,26.55 L215.19,27 L205.34,27 C202.537784,26.9571424 199.756741,27.4915656 197.17,28.57 C207.356667,28.75 217.44,28.9766667 227.42,29.25 L227.42,25.1 C227.34,20.7666667 225.866667,17.4 223,15 Z" id="Path"></path>
                <path d="M256.09,11.89 L256.09,16.5 C254.849365,14.8854393 253.227605,13.6038366 251.37,12.77 C249.380205,11.8797544 247.219602,11.4360287 245.04,11.47 C242.137167,11.4255706 239.280827,12.2020513 236.8,13.71 C234.359178,15.2206982 232.407415,17.4051445 231.18,20 C229.809317,22.8986273 229.124947,26.0741019 229.18,29.28 C233.07,29.38 236.93,29.5 240.78,29.62 C240.697678,27.330475 241.455226,25.0898403 242.91,23.32 C244.32439,21.7547518 246.335379,20.8615373 248.445,20.8615373 C250.554621,20.8615373 252.56561,21.7547518 253.98,23.32 C255.443522,25.1339968 256.190726,27.421863 256.08,29.75 C256.08,29.9 256.08,30.03 256.08,30.17 L268.47,30.64 L268.47,11.89 L256.09,11.89 Z" id="Path"></path>
                <path d="M283.48,30.9 C283.364055,28.4426362 284.157999,26.028762 285.71,24.12 C287.1712,22.4092106 289.331346,21.4560968 291.58,21.53 C293.838839,21.4627652 296.00845,22.413576 297.49,24.12 C299.063987,26.0187892 299.873378,28.4362671 299.76,30.9 C299.76,31.28 299.76,31.62 299.68,31.98 L312.16,32.6 C312.21,32 312.27,31.39 312.27,30.76 C312.339954,27.2205922 311.444577,23.7289688 309.68,20.66 C307.956748,17.7497873 305.433194,15.3963222 302.41,13.88 C295.547494,10.6668338 287.612506,10.6668338 280.75,13.88 C277.734328,15.3922336 275.222643,17.74759 273.52,20.66 C271.796041,23.7073346 270.915806,27.1592364 270.97,30.66 L283.5,31.19 C283.5,31.12 283.48,31 283.48,30.9 Z" id="Path"></path>
            </g>
            <path d="M84.87,44.37 L122.53,44.37 L122.53,62.75 L84.87,62.75 C83.7654305,62.75 82.87,61.8545695 82.87,60.75 L82.87,46.37 C82.87,45.2654305 83.7654305,44.37 84.87,44.37 Z" id="Path" fill="#FFFFFF" fill-rule="nonzero"></path>
            <path d="M80.66,95 L114.66,95 C116.75164,95 118.757465,94.1684172 120.23554,92.688467 C121.713614,91.2085168 122.542654,89.201638 122.540006,87.11 L122.540006,62.75 L85.34,62.75 C84.1574835,62.7516297 83.1411201,61.91166 82.92,60.75 C77.52,64.9166667 71.44,69.2 64.68,73.6 C72.31,81 77.64,88 80.66,95 Z" id="Path" fill="#1C2D50" fill-rule="nonzero"></path>
            <path d="M101.11,44.37 L122.53,44.37 L122.53,19.54 C122.528513,15.3909426 119.310014,11.9537954 115.17,11.68 C116.05,22.41 111.37,33.1 101.11,44.37 Z" id="Path" fill="#1C2D50" fill-rule="nonzero"></path>
            <path d="M81.72,61.65 C78.5259864,44.4658112 73.4140108,27.6942377 66.48,11.65 L12.68,11.65 C46.76,43.53 63.9,72.84 63.9,72.84 L63.9,72.84 L64.68,73.59 C71.44,69.1833333 77.52,64.9 82.92,60.74 L82.92,60.74 L81.72,61.65 Z" id="Path" fill="#00A562" fill-rule="nonzero"></path>
            <path d="M101.09,44.37 L101.09,44.37 C111.35,33.1 116.03,22.37 115.15,11.68 L115.15,11.68 C116,22.41 111.36,33.1 101.09,44.37 Z" id="Path" fill="#1C2D50" fill-rule="nonzero"></path>
            <path d="M115.15,11.68 C114.99,11.68 114.82,11.68 114.65,11.68 L66.48,11.68 C73.4140108,27.7242377 78.5259864,44.4958112 81.72,61.68 L82.92,60.76 C82.9052908,60.6103606 82.9052908,60.4596394 82.92,60.31 L82.92,46.84 C82.9254804,45.4781332 84.0281332,44.3754804 85.39,44.37 L101.14,44.37 C111.36,33.1 116,22.41 115.15,11.68 Z" id="Path" fill="#9EC41A" fill-rule="nonzero"></path>
            <path d="M0.73,19.54 L0.73,29.87 L1.48,30.28 L2.33,30.76 L3.71,31.54 C3.97,31.69 4.24,31.83 4.5,31.99 L4.61,32.05 L4.74,32.12 L6.02,32.85 L6.7,33.24 L8.92,34.51 L12.08,36.35 L12.73,36.73 L15.84,38.56 L15.91,38.61 L18.91,40.39 L19.45,40.71 L22.45,42.53 L22.59,42.62 L25.46,44.39 L25.78,44.59 L30.37,47.5 L30.83,47.79 L32.3,48.79 L33.3,49.4 L34.25,50.03 L35.64,50.95 L36.1,51.26 C36.71,51.66 37.31,52.06 37.9,52.47 L37.9,52.47 C47.126327,58.5552611 55.8448106,65.3775498 63.97,72.87 L63.97,72.87 C63.97,72.87 46.83,43.56 12.75,11.6796886 L8.69,11.6796886 C6.59052961,11.6613579 4.57021113,12.4802683 3.07624834,13.9554627 C1.58228554,15.4306571 0.737900328,17.4404617 0.73,19.54 L0.73,19.54 Z" id="Path" fill="#00915D" fill-rule="nonzero"></path>
            <path d="M64.68,73.59 L64.68,73.59 C72.3,80.96 77.63,88.04 80.68,95.02 L80.68,95.02 C77.64,88 72.31,81 64.68,73.59 Z" id="Path" fill="#1C2D50" fill-rule="nonzero"></path>
            <path d="M42.19,87.3 L41.35,87.79 C36.93,90.3366667 32.65,92.7433333 28.51,95.01 L42.12,95.01 C42.24,92.3366667 42.2633333,89.7666667 42.19,87.3 Z" id="Path" fill="#FFCC00" fill-rule="nonzero"></path>
            <polygon id="Path" fill="#1C2D50" fill-rule="nonzero" points="64.68 73.59 64.68 73.59 63.9 72.84 63.9 72.84"></polygon>
            <path d="M32.26,48.75 L33.26,49.36 L32.26,48.75 Z" id="Path" fill="#005E50" fill-rule="nonzero"></path>
            <path d="M6,32.85 L6.68,33.24 L6,32.85 Z" id="Path" fill="#005E50" fill-rule="nonzero"></path>
            <path d="M34.16,50 L35.55,50.92 L34.16,50 Z" id="Path" fill="#005E50" fill-rule="nonzero"></path>
            <path d="M30.33,47.5 L30.79,47.79 L30.33,47.5 Z" id="Path" fill="#005E50" fill-rule="nonzero"></path>
            <path d="M1.48,30.28 L2.33,30.76 L1.48,30.28 Z" id="Path" fill="#005E50" fill-rule="nonzero"></path>
            <path d="M3.71,31.54 C3.97,31.69 4.24,31.83 4.5,31.99 C4.24,31.83 4,31.69 3.71,31.54 Z" id="Path" fill="#005E50" fill-rule="nonzero"></path>
            <polygon id="Path" fill="#E30617" fill-rule="nonzero" points="12.08 36.35 8.92 34.51 12.04 36.32"></polygon>
            <polygon id="Path" fill="#E30617" fill-rule="nonzero" points="28.7 46.45 28.7 46.45 30.31 47.45 25.72 44.54 25.78 44.54"></polygon>
            <path d="M4.61,32.05 L4.74,32.12 L4.61,32.05 Z" id="Path" fill="#E30617" fill-rule="nonzero"></path>
            <path d="M33.21,49.36 L34.16,49.99 L33.21,49.36 Z" id="Path" fill="#E30617" fill-rule="nonzero"></path>
            <path d="M30.79,47.79 L32.26,48.79 L30.79,47.79 Z" id="Path" fill="#E30617" fill-rule="nonzero"></path>
            <polygon id="Path" fill="#E30617" fill-rule="nonzero" points="18.8 40.34 18.88 40.39 15.88 38.61 16.02 38.69"></polygon>
            <path d="M25.33,44.34 L25.42,44.39 L22.55,42.62 C22.5901658,42.6373165 22.6273019,42.6609485 22.66,42.69 L25.33,44.34 Z" id="Path" fill="#E30617" fill-rule="nonzero"></path>
            <path d="M15.8,38.54 L15.8,38.54 L12.69,36.71 L12.74,36.71 C13.8,37.35 14.8,38 15.8,38.54 Z" id="Path" fill="#E30617" fill-rule="nonzero"></path>
            <polygon id="Path" fill="#E30617" fill-rule="nonzero" points="22.37 42.5 22.37 42.5 19.37 40.68 19.44 40.68"></polygon>
            <polygon id="Path" fill="#E30617" fill-rule="nonzero" points="64.68 73.59 64.68 73.59 63.9 72.84 63.9 72.84"></polygon>
            <path d="M25.33,44.34 L22.66,42.69 L25.33,44.34 Z" id="Path" fill="#E30617" fill-rule="nonzero"></path>
            <path d="M22.37,42.5 L19.49,40.75 L22.37,42.5 Z" id="Path" fill="#E30617" fill-rule="nonzero"></path>
            <path d="M28.7,46.45 L25.8,44.63 L28.7,46.45 Z" id="Path" fill="#E30617" fill-rule="nonzero"></path>
            <path d="M8.92,34.51 L12.04,36.32 L8.92,34.51 Z" id="Path" fill="#E30617" fill-rule="nonzero"></path>
            <path d="M15.8,38.54 C14.8,37.95 13.8,37.35 12.8,36.76 C13.8,37.35 14.8,38 15.8,38.54 Z" id="Path" fill="#E30617" fill-rule="nonzero"></path>
            <path d="M42.07,84.34 C41.01,65.43 35.07,52.43 33.93,50.08 C24.33,47.28 15.3,45.08 6.85,43.3 C9.66,53.36 7.6,63.3 0.74,73.55 L0.74,87.12 C0.741989386,90.8937693 3.41598543,94.1377708 7.12,94.86 C7.61440684,94.9554514 8.11648212,95.0056589 8.62,95.01 L28.62,95.01 C32.74,92.7633333 37,90.37 41.4,87.83 L42.24,87.34 C42.17,86.33 42.13,85.33 42.07,84.34 Z" id="Path" fill="#F08200" fill-rule="nonzero"></path>
            <path d="M18.8,40.34 L16.05,38.69 L18.8,40.34 Z" id="Path" fill="#E30617" fill-rule="nonzero"></path>
            <path d="M1.69,72.09 C1.4,72.54 1.11,72.99 0.81,73.44 C1.11,73 1.4,72.54 1.69,72.09 Z" id="Path" fill="#E30617" fill-rule="nonzero"></path>
            <path d="M2.54,70.68 C2.3,71.09 2.06,71.49 1.8,71.9 C2.06,71.49 2.3,71.09 2.54,70.68 Z" id="Path" fill="#E30617" fill-rule="nonzero"></path>
            <path d="M4.16,67.68 L4.16,67.76 L4.16,67.68 Z" id="Path" fill="#E30617" fill-rule="nonzero"></path>
            <path d="M1.8,71.9 L1.69,72.09 L1.8,71.9 Z" id="Path" fill="#E30617" fill-rule="nonzero"></path>
            <path d="M0.81,73.44 L0.75,73.52 L0.81,73.44 Z" id="Path" fill="#E30617" fill-rule="nonzero"></path>
            <path d="M2.63,70.53 L2.54,70.68 L2.63,70.53 Z" id="Path" fill="#E30617" fill-rule="nonzero"></path>
            <path d="M6.93,60.46 C6.91784073,60.5146387 6.90111532,60.56816 6.88,60.62 C6.90111532,60.56816 6.91784073,60.5146387 6.93,60.46 Z" id="Path" fill="#E74410" fill-rule="nonzero"></path>
            <polygon id="Path" fill="#E74410" fill-rule="nonzero" points="3.57 68.82 3.57 68.83 3.57 68.83"></polygon>
            <path d="M8,49.56 C8,49.49 8,49.42 8,49.35 C8,48.94 7.92,48.54 7.87,48.13 L7.81,47.68 C7.75666667,47.2933333 7.69666667,46.9033333 7.63,46.51 L7.54,46.05 C7.46,45.65 7.38,45.24 7.29,44.84 L7.29,44.71 C7.18,44.24 7.07,43.77 6.94,43.3 L6.94,43.3 C4.87333333,42.8666667 2.83333333,42.4666667 0.82,42.1 L0.82,73.55 L0.82,73.55 L0.82,73.55 L0.82,73.55 C1.05,73.21 1.26,72.87 1.48,72.55 C1.29,72.85 1.1,73.15 0.9,73.45 C1.1,73.15 1.29,72.85 1.48,72.55 L1.48,72.55 L1.78,72.1 L1.89,71.91 C2.15,71.5 2.39,71.1 2.63,70.69 L2.72,70.54 C3.05,69.97 3.36,69.4 3.66,68.84 C3.85,68.48 4.04,68.12 4.21,67.77 L4.21,67.69 L4.45,67.19 L4.45,67.19 C4.55,66.99 4.64,66.79 4.74,66.58 L4.74,66.58 C4.79,66.46 4.85,66.34 4.91,66.22 C4.97,66.1 5,66.02 5.04,65.91 C5.2,65.56 5.34,65.21 5.49,64.91 L5.49,64.8 L5.49,64.8 L5.57,64.62 L5.57,64.62 C5.74,64.21 5.89,63.8 6.04,63.39 L6.04,63.29 L6.04,63.29 C6.0709392,63.2182915 6.09765161,63.1448324 6.12,63.07 L6.12,62.97 C6.26,62.55 6.4,62.14 6.53,61.73 L6.62,61.41 C6.69,61.18 6.75,60.95 6.81,60.72 C6.81,60.86 6.74,60.99 6.7,61.13 C6.77,60.89 6.83,60.65 6.9,60.41 C6.89547267,60.4598975 6.89547267,60.5101025 6.9,60.56 L6.99,60.24 C6.99,60.13 6.99,60.02 7.07,59.91 C7.16,59.53 7.25,59.14 7.33,58.76 L7.39,58.53 C7.47,58.12 7.55,57.71 7.62,57.3 C7.61522803,57.2067277 7.61522803,57.1132723 7.62,57.02 C7.68,56.61 7.73,56.2 7.78,55.79 C7.78,55.65 7.78,55.51 7.78,55.36 C7.78,54.96 7.86,54.56 7.89,54.16 C7.89,54.03 7.89,53.9 7.89,53.78 C8.01582727,52.3770724 8.05256765,50.9675777 8,49.56 L8,49.56 Z" id="Path" fill="#E74410" fill-rule="nonzero"></path>
            <path d="M4.69,66.57 C4.59,66.78 4.5,66.98 4.4,67.18 C4.5,67 4.59,66.78 4.69,66.57 Z" id="Path" fill="#E74410" fill-rule="nonzero"></path>
            <path d="M18.88,40.39 L19.42,40.71 L18.88,40.39 Z" id="Path" fill="#EDE300" fill-rule="nonzero"></path>
            <path d="M22.41,42.53 L22.55,42.62 L22.41,42.53 Z" id="Path" fill="#EDE300" fill-rule="nonzero"></path>
            <polygon id="Path" fill="#EDE300" fill-rule="nonzero" points="6 32.85 4.72 32.12 5.02 32.29"></polygon>
            <path d="M25.42,44.39 L25.74,44.59 L25.42,44.39 Z" id="Path" fill="#EDE300" fill-rule="nonzero"></path>
            <path d="M15.84,38.56 L15.91,38.61 L15.84,38.56 Z" id="Path" fill="#EDE300" fill-rule="nonzero"></path>
            <polygon id="Path" fill="#EDE300" fill-rule="nonzero" points="4.61 32.05 4.5 31.99 4.55 31.99"></polygon>
            <path d="M2.33,30.76 L3.71,31.54 L2.33,30.76 Z" id="Path" fill="#EDE300" fill-rule="nonzero"></path>
            <path d="M1,30 C1.16,30.1 1.33,30.19 1.5,30.28 L0.75,29.87 L0.75,29.87 L1,30 Z" id="Path" fill="#EDE300" fill-rule="nonzero"></path>
            <path d="M6.7,33.24 L8.92,34.51 L6.7,33.24 Z" id="Path" fill="#EDE300" fill-rule="nonzero"></path>
            <path d="M12.08,36.35 L12.73,36.73 L12.08,36.35 Z" id="Path" fill="#EDE300" fill-rule="nonzero"></path>
            <path d="M4.55,32 L4.5,32 C4.24,31.84 3.97,31.7 3.71,31.55 L2.33,30.77 L1.48,30.29 C1.31,30.2 1.14,30.11 0.98,30.01 L4.55,32 Z" id="Path" fill="#EDE300" fill-rule="nonzero"></path>
            <polygon id="Path" fill="#EDE300" fill-rule="nonzero" points="8.92 34.51 6.7 33.24 6.02 32.85 5.02 32.29"></polygon>
            <polygon id="Path" fill="#EDE300" fill-rule="nonzero" points="12.78 36.76 12.73 36.76 12.08 36.38 12.08 36.38"></polygon>
            <polygon id="Path" fill="#EDE300" fill-rule="nonzero" points="19.49 40.75 19.42 40.75 18.88 40.43 18.8 40.38"></polygon>
            <polygon id="Path" fill="#EDE300" fill-rule="nonzero" points="0.73 29.87 0.73 29.87 0.98 30"></polygon>
            <polygon id="Path" fill="#EDE300" fill-rule="nonzero" points="16.05 38.69 15.91 38.61 15.84 38.56 15.84 38.56"></polygon>
            <polygon id="Path" fill="#EDE300" fill-rule="nonzero" points="5 32.29 4.7 32.12 4.57 32.05 4.51 32.05"></polygon>
            <polygon id="Path" fill="#EDE300" fill-rule="nonzero" points="25.8 44.63 25.74 44.63 25.42 44.43 25.33 44.38"></polygon>
            <path d="M22.66,42.69 C22.6273019,42.6609485 22.5901658,42.6373165 22.55,42.62 L22.41,42.53 L22.41,42.53 L22.66,42.69 Z" id="Path" fill="#EDE300" fill-rule="nonzero"></path>
            <polygon id="Path" fill="#EDE300" fill-rule="nonzero" points="34.63 50.3 34.21 50.02 34.62 50.3"></polygon>
            <path d="M6.87,43.3 L6.87,43.3 C5.51658078,38.7167991 3.44047871,34.3789273 0.72,30.45 L0.72,30.45 C3.44315759,34.3773715 5.51947283,38.7156887 6.87,43.3 Z" id="Path" fill="#EDE300" fill-rule="nonzero"></path>
            <path d="M0.73,30.48 L0.73,42.1 C2.73,42.4733333 4.77,42.8733333 6.85,43.3 C5.50917067,38.7267049 3.44288319,34.3983053 0.73,30.48 L0.73,30.48 Z" id="Path" fill="#F08200" fill-rule="nonzero"></path>
            <path d="M42.19,87.35 L44.03,86.28 L42.19,87.35 Z" id="Path" fill="#EDE300" fill-rule="nonzero"></path>
            <path d="M53.62,80.56 C57.4933333,78.2 61.18,75.8666667 64.68,73.56 L64.68,73.56 C61.1666667,75.8533333 57.48,78.1866667 53.62,80.56 Z" id="Path" fill="#EDE300" fill-rule="nonzero"></path>
            <path d="M50.53,82.43 L47.93,83.99 L50.53,82.43 Z" id="Path" fill="#EDE300" fill-rule="nonzero"></path>
            <path d="M53.51,80.63 L50.85,82.24 L53.51,80.63 Z" id="Path" fill="#EDE300" fill-rule="nonzero"></path>
            <path d="M46.84,84.63 L45.22,85.63 L46.84,84.63 Z" id="Path" fill="#EDE300" fill-rule="nonzero"></path>
            <path d="M45.22,85.59 L44.03,86.28 L45.22,85.59 Z" id="Path" fill="#EDE300" fill-rule="nonzero"></path>
            <path d="M50.85,82.24 L50.53,82.43 L50.85,82.24 Z" id="Path" fill="#EDE300" fill-rule="nonzero"></path>
            <path d="M53.62,80.56 L53.51,80.63 L53.62,80.56 Z" id="Path" fill="#EDE300" fill-rule="nonzero"></path>
            <path d="M47.93,84 L46.84,84.64 L47.93,84 Z" id="Path" fill="#EDE300" fill-rule="nonzero"></path>
            <polygon id="Path" fill="#EDE300" fill-rule="nonzero" points="33.73 49.71 33.73 49.71 34.21 50.02"></polygon>
            <path d="M63.9,72.84 C61.56,70.62 59.0133333,68.3733333 56.26,66.1 L56.26,66.1 C49.3343419,60.4547136 42.1142053,55.1806424 34.63,50.3 L33.93,50.09 C35.08,52.45 41.02,65.44 42.08,84.36 C42.13,85.36 42.17,86.36 42.2,87.36 L44.04,86.29 L45.23,85.6 L46.85,84.6 L47.94,83.96 L50.54,82.4 L50.86,82.21 L53.52,80.6 L53.63,80.53 C57.5033333,78.17 61.19,75.8366667 64.69,73.53 L63.9,72.84 Z" id="Path" fill="#FAB700" fill-rule="nonzero"></path>
            <path d="M64.68,73.59 C61.18,75.8833333 57.4933333,78.2166667 53.62,80.59 L53.51,80.66 L50.85,82.27 L50.53,82.46 L47.93,84.02 L46.84,84.66 L45.22,85.66 L44.03,86.35 L42.19,87.42 C42.26,89.89 42.24,92.42 42.11,95.09 L80.66,95.09 C77.63,88 72.3,81 64.68,73.59 Z" id="Path" fill="#FFE100" fill-rule="nonzero"></path>
            <path d="M34.21,50 L33.73,49.69 C32.1,48.62 30.44,47.54 28.73,46.45 L28.73,46.45 L25.83,44.63 L25.36,44.34 L22.69,42.69 L22.4,42.5 L19.52,40.75 L18.83,40.34 L16.08,38.69 L15.83,38.54 C14.83,37.95 13.83,37.35 12.83,36.76 L12.09,36.32 L8.97,34.51 L5,32.29 L4.51,32.01 L1,30 L0.75,29.87 L0.75,30.45 L0.75,30.45 L0.75,30.45 C3.46288319,34.3683053 5.52917067,38.6967049 6.87,43.27 L6.87,43.27 C15.31,45.01 24.31,47.2733333 33.87,50.06 L34.57,50.27 L34.21,50 Z M2.1,32.6 C2.95024444,33.9767435 3.72472915,35.3988577 4.42,36.86 L4.42,36.86 C3.75,35.46 3,34 2.1,32.6 Z" id="Shape" fill="#F59C00" fill-rule="nonzero"></path>
            <path d="M85.34,44.37 L122.530006,44.37 L122.530006,19.54 C122.532654,17.448362 121.703614,15.4414832 120.22554,13.961533 C118.747465,12.4815828 116.74164,11.65 114.65,11.65 L8.65,11.65 C4.29247332,11.65 0.76,15.1824733 0.76,19.54 L0.76,87.13 C0.76,91.4875267 4.29247332,95.02 8.65,95.02 L114.65,95.02 C116.74164,95.02 118.747465,94.1884172 120.22554,92.708467 C121.703614,91.2285168 122.532654,89.221638 122.530006,87.13 L122.530006,62.75 L85.34,62.75 C83.9781332,62.7445196 82.8754804,61.6418668 82.87,60.28 L82.87,46.84 C82.8754804,45.4781332 83.9781332,44.3754804 85.34,44.37 Z" id="Path"></path>
            <rect id="Rectangle" fill="#86BC25" fill-rule="nonzero" x="91.02" y="49.92" width="28.28" height="7.28" rx="0.54"></rect>
            <rect id="Rectangle" fill="#689A2F" fill-rule="nonzero" x="75.89" y="22.19" width="30.25" height="6.79" rx="0.48"></rect>
            <path d="M407.72,89.8 L406.87,89.8 L406.87,91.27 L406.39,91.27 L406.39,87.64 L407.59,87.64 C407.929812,87.6180737 408.2664,87.7172785 408.54,87.92 C408.768505,88.1250298 408.890169,88.4236587 408.87,88.73 C408.870754,88.9418265 408.804224,89.1484208 408.68,89.32 C408.555883,89.4987922 408.376824,89.6322093 408.17,89.7 L409.03,91.24 L409.03,91.24 L408.51,91.24 L407.72,89.8 Z M406.87,89.41 L407.61,89.41 C407.81226,89.4194547 408.011129,89.3555326 408.17,89.23 C408.310644,89.1026935 408.387563,88.9195531 408.38,88.73 C408.394763,88.5354336 408.321338,88.3445277 408.18,88.21 C408.016828,88.0779818 407.809245,88.0135594 407.6,88.03 L406.87,88.03 L406.87,89.41 Z" id="Shape" fill="#1C2D50" fill-rule="nonzero"></path>
            <polygon id="Path" fill="#1C2D50" fill-rule="nonzero" points="410.05 91.27 409.57 91.27 409.57 87.64 410.05 87.64"></polygon>
            <polygon id="Path" fill="#1C2D50" fill-rule="nonzero" points="412.93 89.67 411.4 89.67 411.4 91.27 410.92 91.27 410.92 87.64 413.17 87.64 413.17 88 411.4 88 411.4 89.25 412.93 89.25"></polygon>
            <path d="M413.66,91 C413.655106,90.92658 413.680389,90.8543429 413.73,90.8 C413.786403,90.7461932 413.862093,90.717359 413.94,90.72 C414.021317,90.7145691 414.101166,90.743605 414.16,90.8 C414.209611,90.8543429 414.234894,90.92658 414.23,91 C414.234507,91.0703712 414.209085,91.1393731 414.16,91.19 C414.101166,91.246395 414.021317,91.2754309 413.94,91.27 C413.862093,91.272641 413.786403,91.2438068 413.73,91.19 C413.680915,91.1393731 413.655493,91.0703712 413.66,91 Z M413.66,88.8 C413.659943,88.7273183 413.684631,88.6567826 413.73,88.6 C413.788834,88.543605 413.868683,88.5145691 413.95,88.52 C414.027907,88.517359 414.103597,88.5461932 414.16,88.6 C414.212269,88.6533316 414.24107,88.7253327 414.24,88.8 C414.239513,88.8714217 414.210747,88.9397408 414.16,88.99 C414.103597,89.0438068 414.027907,89.072641 413.95,89.07 C413.868683,89.0754309 413.788834,89.046395 413.73,88.99 C413.692283,88.9441886 413.668047,88.888792 413.66,88.83 L413.66,88.8 Z" id="Shape" fill="#1C2D50" fill-rule="nonzero"></path>
            <path d="M417.77,87.64 L418.25,87.64 L418.25,90.21 C418.268517,90.5150623 418.155699,90.8134829 417.94,91.03 C417.706917,91.2297084 417.406647,91.3333729 417.1,91.32 C416.794131,91.3403114 416.492508,91.2397703 416.26,91.04 C416.053665,90.838588 415.944312,90.5579144 415.96,90.27 L416.44,90.27 C416.426226,90.4498458 416.487801,90.6273286 416.61,90.76 C416.74446,90.8791766 416.920622,90.9402939 417.1,90.93 C417.280013,90.9394566 417.455228,90.8701003 417.58,90.74 C417.71422,90.6014607 417.783287,90.4124362 417.77,90.22 L417.77,87.64 Z" id="Path" fill="#1C2D50" fill-rule="nonzero"></path>
            <polygon id="Path" fill="#1C2D50" fill-rule="nonzero" points="420 89.92 418.79 89.92 418.79 89.54 420 89.54"></polygon>
            <path d="M422.3,90.05 L422.81,90.05 L422.81,90.43 L422.3,90.43 L422.3,91.27 L421.84,91.27 L421.84,90.43 L420.18,90.43 L420.18,90.16 L421.81,87.64 L422.3,87.64 L422.3,90.05 Z M420.71,90.05 L421.84,90.05 L421.84,88.27 L421.78,88.37 L420.71,90.05 Z" id="Shape" fill="#1C2D50" fill-rule="nonzero"></path>
            <polygon id="Path" fill="#1C2D50" fill-rule="nonzero" points="424.74 91.27 424.27 91.27 424.27 88.2 423.34 88.54 423.34 88.12 424.67 87.62 424.74 87.62"></polygon>
            <path d="M428.47,91.27 L426.09,91.27 L426.09,90.94 L427.35,89.54 C427.492937,89.3827512 427.620206,89.2119435 427.73,89.03 C427.799958,88.9045124 427.837749,88.7636528 427.84,88.62 C427.84505,88.4474335 427.784275,88.2794064 427.67,88.15 C427.54822,88.0288718 427.381647,87.9636912 427.21,87.97 C427.010241,87.9544312 426.813783,88.0277534 426.67307,88.1703935 C426.532358,88.3130336 426.461715,88.5104709 426.48,88.71 L426,88.71 C425.990687,88.4074738 426.106438,88.1144769 426.32,87.9 C426.556439,87.6837543 426.870092,87.571993 427.19,87.59 C427.481116,87.5763088 427.766719,87.6726998 427.99,87.86 C428.184962,88.0392921 428.291048,88.2953611 428.28,88.56 C428.213273,89.0541201 427.972093,89.5081056 427.6,89.84 L426.6,90.89 L428.43,90.89 L428.47,91.27 Z" id="Path" fill="#1C2D50" fill-rule="nonzero"></path>
            <path d="M431.16,88.59 C431.162193,88.7618621 431.10966,88.9299668 431.01,89.07 C430.915683,89.2124951 430.784307,89.3265847 430.63,89.4 C430.809838,89.4770268 430.965375,89.6014568 431.08,89.76 C431.187695,89.9154673 431.243678,90.1009104 431.24,90.29 C431.257577,90.576475 431.138973,90.8544529 430.92,91.04 C430.425371,91.4116676 429.744629,91.4116676 429.25,91.04 C429.041622,90.846818 428.925266,90.5741097 428.93,90.29 C428.942113,89.8996755 429.180331,89.5521119 429.54,89.4 C429.385693,89.3265847 429.254317,89.2124951 429.16,89.07 C429.063248,88.9290674 429.014184,88.7608484 429.02,88.59 C429.013052,88.3172975 429.117811,88.0535931 429.31,87.86 C429.526146,87.6739819 429.805108,87.5774179 430.09,87.59 C430.372098,87.5758481 430.648515,87.6727734 430.86,87.86 C431.063413,88.0467308 431.173331,88.3141965 431.16,88.59 Z M430.78,90.28 C430.789743,90.0969969 430.720567,89.9185971 430.59,89.79 C430.454882,89.655814 430.270315,89.5834348 430.08,89.59 C429.894753,89.5846492 429.714944,89.6529766 429.58,89.78 C429.454812,89.9160856 429.386779,90.0951189 429.39,90.28 C429.382768,90.4625933 429.451564,90.6400127 429.58,90.77 C429.718423,90.8969003 429.902589,90.9619 430.09,90.95 C430.276932,90.958554 430.45985,90.8939945 430.6,90.77 C430.724788,90.6383432 430.789887,90.4611292 430.78,90.28 Z M430.09,87.97 C429.926275,87.9642205 429.767307,88.0256399 429.65,88.14 C429.532523,88.2634535 429.47104,88.4298194 429.48,88.6 C429.47422,88.7637248 429.53564,88.9226928 429.65,89.04 C429.763689,89.1598759 429.925245,89.2222949 430.09,89.21 C430.254333,89.219525 430.414761,89.1575417 430.53,89.04 C430.64436,88.9226928 430.70578,88.7637248 430.7,88.6 C430.706309,88.428353 430.641128,88.2617804 430.52,88.14 C430.400412,88.0390373 430.246107,87.9887985 430.09,88 L430.09,87.97 Z" id="Shape" fill="#1C2D50" fill-rule="nonzero"></path>
            <path d="M432,89.45 L432.18,87.64 L434.04,87.64 L434.04,88.07 L432.57,88.07 L432.46,89.07 C432.644029,88.9598592 432.855603,88.9043644 433.07,88.91 C433.369488,88.8960114 433.659451,89.0171351 433.86,89.24 C434.061468,89.4877593 434.164696,89.8010047 434.15,90.12 C434.170051,90.446214 434.058374,90.7668328 433.84,91.01 C433.617648,91.23034 433.312596,91.3465504 433,91.33 C432.712424,91.3402111 432.431171,91.2440865 432.21,91.06 C431.999368,90.8750703 431.876017,90.6102298 431.87,90.33 L432.3,90.33 C432.316741,90.5074031 432.394493,90.6735087 432.52,90.8 C432.65581,90.9088491 432.826042,90.9655931 433,90.96 C433.191164,90.9650492 433.374571,90.8843502 433.5,90.74 C433.628332,90.5629134 433.695073,90.3486392 433.69,90.13 C433.699856,89.9182188 433.628296,89.7106943 433.49,89.55 C433.357163,89.3971872 433.162345,89.3126434 432.96,89.32 C432.791877,89.3110722 432.625835,89.3605314 432.49,89.46 L432.36,89.56 L432,89.45 Z" id="Path" fill="#1C2D50" fill-rule="nonzero"></path>
            <path d="M436.89,88.59 C436.891306,88.7602521 436.842629,88.9271456 436.75,89.07 C436.650765,89.211912 436.51638,89.3256228 436.36,89.4 C436.539838,89.4770268 436.695375,89.6014568 436.81,89.76 C436.921244,89.9142661 436.980758,90.0998086 436.98,90.29 C436.992963,90.5756593 436.875191,90.8516865 436.66,91.04 C436.162222,91.4133333 435.477778,91.4133333 434.98,91.04 C434.775309,90.8450507 434.662687,90.5725778 434.67,90.29 C434.667652,90.101096 434.723515,89.9160486 434.83,89.76 C434.938749,89.5999587 435.091593,89.4749043 435.27,89.4 C435.117271,89.3241951 434.986462,89.2105974 434.89,89.07 C434.797371,88.9271456 434.748694,88.7602521 434.75,88.59 C434.736669,88.3141965 434.846587,88.0467308 435.05,87.86 C435.261485,87.6727734 435.537902,87.5758481 435.82,87.59 C436.104892,87.5774179 436.383854,87.6739819 436.6,87.86 C436.792189,88.0535931 436.896948,88.3172975 436.89,88.59 Z M436.52,90.28 C436.525857,90.0956915 436.453154,89.9175695 436.32,89.79 C436.188639,89.6563399 436.007303,89.5838054 435.82,89.59 C435.634566,89.5835302 435.454341,89.6520158 435.32,89.78 C435.191024,89.9137144 435.122373,90.0943764 435.13,90.28 C435.120113,90.4611292 435.185212,90.6383432 435.31,90.77 C435.45015,90.8939945 435.633068,90.958554 435.82,90.95 C436.007411,90.9619 436.191577,90.8969003 436.33,90.77 C436.461689,90.6421428 436.53107,90.4632125 436.52,90.28 L436.52,90.28 Z M435.82,87.97 C435.651963,87.9606457 435.488149,88.0247413 435.37108,88.1456488 C435.254011,88.2665564 435.195231,88.4323524 435.21,88.6 C435.20422,88.7637248 435.26564,88.9226928 435.38,89.04 C435.495239,89.1575417 435.655667,89.219525 435.82,89.21 C435.987735,89.222504 436.15243,89.1602861 436.27,89.04 C436.380717,88.9210518 436.438451,88.762282 436.43,88.6 C436.435569,88.4303516 436.374555,88.2652549 436.26,88.14 C436.136829,88.038423 435.979222,87.9882751 435.82,88 L435.82,87.97 Z" id="Shape" fill="#1C2D50" fill-rule="nonzero"></path>
            <path d="M439.33,89.68 C439.22947,89.7891761 439.111119,89.8804756 438.98,89.95 C438.844659,90.022416 438.693497,90.0602063 438.54,90.06 C438.344486,90.0651838 438.152224,90.009253 437.99,89.9 C437.83455,89.7905181 437.710443,89.6422784 437.63,89.47 C437.463238,89.059628 437.463238,88.600372 437.63,88.19 C437.719082,88.0084857 437.857772,87.8559271 438.03,87.75 C438.5042,87.4675987 439.113022,87.569069 439.47,87.99 C439.693522,88.3116426 439.802679,88.6989735 439.78,89.09 L439.78,89.23 C439.826562,89.7768527 439.677748,90.3225047 439.36,90.77 C439.038144,91.1199752 438.574251,91.30406 438.1,91.27 L438,91.27 L438,90.88 L438.09,90.88 C438.411878,90.9034668 438.729483,90.7951923 438.97,90.58 C439.207144,90.3412725 439.337085,90.0164192 439.33,89.68 L439.33,89.68 Z M438.62,89.68 C438.772882,89.6786371 438.920844,89.6257936 439.04,89.53 C439.167716,89.442991 439.268245,89.3216627 439.33,89.18 L439.33,89 C439.339854,88.7387664 439.270107,88.4807035 439.13,88.26 C439.0243,88.0850981 438.834356,87.9787293 438.63,87.98 C438.439059,87.9727982 438.256453,88.0585111 438.14,88.21 C438.015215,88.3883267 437.952018,88.6024963 437.96,88.82 C437.949803,89.0408835 438.013103,89.2589179 438.14,89.44 C438.249976,89.5950275 438.429992,89.6850353 438.62,89.68 Z" id="Shape" fill="#1C2D50" fill-rule="nonzero"></path>
            <path d="M442.19,89.68 C442.095184,89.7911309 441.97972,89.8828231 441.85,89.95 C441.713694,90.0198814 441.563156,90.0575159 441.41,90.06 C441.214486,90.0651838 441.022224,90.009253 440.86,89.9 C440.701443,89.7939375 440.57653,89.6447363 440.5,89.47 C440.319435,89.0624371 440.319435,88.5975629 440.5,88.19 C440.582971,88.007566 440.718846,87.8542719 440.89,87.75 C441.070024,87.6390799 441.278649,87.5834466 441.49,87.59 C441.822225,87.5736691 442.140825,87.7235984 442.34,87.99 C442.558761,88.3138706 442.667455,88.6995594 442.65,89.09 L442.65,89.23 C442.696562,89.7768527 442.547748,90.3225047 442.23,90.77 C441.905045,91.1215866 441.437426,91.3056887 440.96,91.27 L440.87,91.27 L440.87,90.88 L440.97,90.88 C441.291729,90.9023133 441.608897,90.7941877 441.85,90.58 C442.076055,90.3356266 442.198012,90.0127986 442.19,89.68 Z M441.48,89.68 C441.636314,89.6809097 441.788168,89.6279373 441.91,89.53 C442.037716,89.442991 442.138245,89.3216627 442.2,89.18 L442.2,89 C442.209854,88.7387664 442.140107,88.4807035 442,88.26 C441.894277,88.090696 441.712411,87.9838265 441.513057,87.9738589 C441.313703,87.9638912 441.122084,88.0520864 441,88.21 C440.875215,88.3883267 440.812018,88.6024963 440.82,88.82 C440.809803,89.0408835 440.873103,89.2589179 441,89.44 C441.10611,89.5994696 441.288758,89.6907936 441.48,89.68 L441.48,89.68 Z" id="Shape" fill="#1C2D50" fill-rule="nonzero"></path>
            <polygon id="Path" fill="#1C2D50" fill-rule="nonzero" points="444.3 89.92 443.08 89.92 443.08 89.54 444.3 89.54"></polygon>
            <path d="M446.9,88.59 C446.901306,88.7602521 446.852629,88.9271456 446.76,89.07 C446.660765,89.211912 446.52638,89.3256228 446.37,89.4 C446.549838,89.4770268 446.705375,89.6014568 446.82,89.76 C446.931244,89.9142661 446.990758,90.0998086 446.99,90.29 C447.002963,90.5756593 446.885191,90.8516865 446.67,91.04 C446.172222,91.4133333 445.487778,91.4133333 444.99,91.04 C444.785309,90.8450507 444.672687,90.5725778 444.68,90.29 C444.677652,90.101096 444.733515,89.9160486 444.84,89.76 C444.948749,89.5999587 445.101593,89.4749043 445.28,89.4 C445.127271,89.3241951 444.996462,89.2105974 444.9,89.07 C444.807371,88.9271456 444.758694,88.7602521 444.76,88.59 C444.746669,88.3141965 444.856587,88.0467308 445.06,87.86 C445.271485,87.6727734 445.547902,87.5758481 445.83,87.59 C446.114892,87.5774179 446.393854,87.6739819 446.61,87.86 C446.802189,88.0535931 446.906948,88.3172975 446.9,88.59 L446.9,88.59 Z M446.53,90.28 C446.535857,90.0956915 446.463154,89.9175695 446.33,89.79 C446.198639,89.6563399 446.017303,89.5838054 445.83,89.59 C445.644566,89.5835302 445.464341,89.6520158 445.33,89.78 C445.201024,89.9137144 445.132373,90.0943764 445.14,90.28 C445.130113,90.4611292 445.195212,90.6383432 445.32,90.77 C445.46015,90.8939945 445.643068,90.958554 445.83,90.95 C446.017411,90.9619 446.201577,90.8969003 446.34,90.77 C446.468436,90.6400127 446.537232,90.4625933 446.53,90.28 L446.53,90.28 Z M445.83,87.97 C445.666275,87.9642205 445.507307,88.0256399 445.39,88.14 C445.272523,88.2634535 445.21104,88.4298194 445.22,88.6 C445.21422,88.7637248 445.27564,88.9226928 445.39,89.04 C445.505239,89.1575417 445.665667,89.219525 445.83,89.21 C445.997735,89.222504 446.16243,89.1602861 446.28,89.04 C446.390717,88.9210518 446.448451,88.762282 446.44,88.6 C446.445569,88.4303516 446.384555,88.2652549 446.27,88.14 C446.146829,88.038423 445.989222,87.9882751 445.83,88 L445.83,87.97 Z" id="Shape" fill="#1C2D50" fill-rule="nonzero"></path>
            <g id="Group" transform="translate(134.360000, 77.400000)" fill="#1C2D50" fill-rule="nonzero" font-family="Helvetica" font-size="14.92" font-weight="normal">
                <text id="T">
                    <tspan x="0" y="14">T</tspan>
                </text>
                <text id="u-Bill">
                    <tspan x="7.48" y="14">u Bill</tspan>
                </text>
                <text id="e">
                    <tspan x="39.89" y="14">e</tspan>
                </text>
                <text id="tera-Digital-By-Bancamiga">
                    <tspan x="48.27" y="14">tera Digital By Bancamiga</tspan>
                </text>
            </g>
        </g>
    </g>
</svg>