<svg id="Capa_1" data-name="Capa 1" xmlns="http://www.w3.org/2000/svg" viewBox="0 0 400 400"><defs><style>.cls-1{fill:#6ea22e;}.cls-2{fill:#fff;}.cls-3{fill:#1c2d50;}.cls-4{fill:#00a462;}.cls-5{fill:#9cc31a;}.cls-6{fill:#00905d;}.cls-7{fill:#ffcb00;}.cls-8{fill:#005d50;}.cls-9{fill:#e20617;}.cls-10{fill:#ef8100;}.cls-11{fill:#e64310;}.cls-12{fill:#ece200;}.cls-13{fill:#f9b500;}.cls-14{fill:#ffe000;}.cls-15{fill:#f49a00;}.cls-16{fill:#85bb25;}.cls-17{fill:#67992f;}</style></defs><title>Sin título-2</title><path class="cls-1" d="M110.15,167.52a6.48,6.48,0,0,0-7.15-5.76l-80.56,8.7-.21,0h88.24Z"/><path class="cls-2" d="M153.12,184q4.08,3.47,4.08,9.85c0,4.41-1.36,7.81-4.08,10.23s-6.57,3.62-11.55,3.62H130.71v13h-4V180.52h14.82C146.55,180.52,150.39,181.68,153.12,184Zm-2.85,17.52q3.14-2.61,3.13-7.55t-3.1-7.36c-2.07-1.68-5-2.53-8.91-2.53H130.71v20h10.68Q147.15,204.13,150.27,201.52Z"/><path class="cls-2" d="M187.41,190.58v30.1h-3.9V213.5a11.31,11.31,0,0,1-4.46,5.4,13.6,13.6,0,0,1-7.15,1.89q-5.34,0-8.36-3.13c-2-2.08-3-4.95-3-8.58v-18.5h3.9v17.58a9.1,9.1,0,0,0,2.33,6.63,8.55,8.55,0,0,0,6.41,2.39,9.58,9.58,0,0,0,7.58-3.31,12.71,12.71,0,0,0,2.76-8.53V190.58Z"/><path class="cls-2" d="M203.87,192.33a12.37,12.37,0,0,1,6.7-1.87v3.62a10.25,10.25,0,0,0-7.67,2.79,11.72,11.72,0,0,0-3.31,7.72v16.09h-3.84v-30.1h3.84v7A11.57,11.57,0,0,1,203.87,192.33Z"/><path class="cls-2" d="M233.77,192.38a14,14,0,0,1,5.41,5.38,15.56,15.56,0,0,1,1.95,7.81,15.87,15.87,0,0,1-1.95,7.9,13.84,13.84,0,0,1-5.41,5.4,16.77,16.77,0,0,1-15.62,0,13.75,13.75,0,0,1-5.4-5.4,15.87,15.87,0,0,1-1.95-7.9,15.56,15.56,0,0,1,1.95-7.81,13.89,13.89,0,0,1,5.4-5.38,16.84,16.84,0,0,1,15.62,0Zm-13.67,2.91a10.34,10.34,0,0,0-4,4.19,14,14,0,0,0,0,12.35,10.43,10.43,0,0,0,4,4.2,12.27,12.27,0,0,0,11.72,0,10.43,10.43,0,0,0,4-4.2,14,14,0,0,0,0-12.35,10.34,10.34,0,0,0-4-4.19,12.2,12.2,0,0,0-11.72,0Z"/><path class="cls-2" d="M153.12,184q4.08,3.47,4.08,9.85c0,4.41-1.36,7.81-4.08,10.23s-6.57,3.62-11.55,3.62H130.71v13h-4V180.52h14.82c5,0,8.82,1.16,11.55,3.48m-2.85,17.52q3.14-2.61,3.13-7.55t-3.1-7.36c-2.07-1.68-5-2.53-8.91-2.53H130.71v20h10.68q5.76,0,8.88-2.61"/><path class="cls-2" d="M187.41,190.58v30.1h-3.9V213.5a11.31,11.31,0,0,1-4.46,5.4,13.6,13.6,0,0,1-7.15,1.89q-5.34,0-8.36-3.13c-2-2.08-3-4.95-3-8.58v-18.5h3.9v17.58a9.1,9.1,0,0,0,2.33,6.63,8.55,8.55,0,0,0,6.41,2.39,9.58,9.58,0,0,0,7.58-3.31,12.71,12.71,0,0,0,2.76-8.53V190.58Z"/><path class="cls-2" d="M203.87,192.33a12.37,12.37,0,0,1,6.7-1.87v3.62a10.25,10.25,0,0,0-7.67,2.79,11.72,11.72,0,0,0-3.31,7.72v16.09h-3.84v-30.1h3.84v7a11.57,11.57,0,0,1,4.28-5.26"/><path class="cls-2" d="M233.77,192.38a14,14,0,0,1,5.41,5.38,15.56,15.56,0,0,1,1.95,7.81,15.87,15.87,0,0,1-1.95,7.9,13.84,13.84,0,0,1-5.41,5.4,16.77,16.77,0,0,1-15.62,0,13.75,13.75,0,0,1-5.4-5.4,15.87,15.87,0,0,1-1.95-7.9,15.56,15.56,0,0,1,1.95-7.81,13.89,13.89,0,0,1,5.4-5.38,16.84,16.84,0,0,1,15.62,0m-13.67,2.91a10.34,10.34,0,0,0-4,4.19,14,14,0,0,0,0,12.35,10.43,10.43,0,0,0,4,4.2,12.27,12.27,0,0,0,11.72,0,10.43,10.43,0,0,0,4-4.2,14,14,0,0,0,0-12.35,10.34,10.34,0,0,0-4-4.19,12.2,12.2,0,0,0-11.72,0"/><path class="cls-2" d="M153.12,184q4.08,3.47,4.08,9.85c0,4.41-1.36,7.81-4.08,10.23s-6.57,3.62-11.55,3.62H130.71v13h-4V180.52h14.82c5,0,8.82,1.16,11.55,3.48m-2.85,17.52q3.14-2.61,3.13-7.55t-3.1-7.36c-2.07-1.68-5-2.53-8.91-2.53H130.71v20h10.68q5.76,0,8.88-2.61"/><path class="cls-2" d="M187.41,190.58v30.1h-3.9V213.5a11.31,11.31,0,0,1-4.46,5.4,13.6,13.6,0,0,1-7.15,1.89q-5.34,0-8.36-3.13c-2-2.08-3-4.95-3-8.58v-18.5h3.9v17.58a9.1,9.1,0,0,0,2.33,6.63,8.55,8.55,0,0,0,6.41,2.39,9.58,9.58,0,0,0,7.58-3.31,12.71,12.71,0,0,0,2.76-8.53V190.58Z"/><path class="cls-2" d="M203.87,192.33a12.37,12.37,0,0,1,6.7-1.87v3.62a10.25,10.25,0,0,0-7.67,2.79,11.72,11.72,0,0,0-3.31,7.72v16.09h-3.84v-30.1h3.84v7a11.57,11.57,0,0,1,4.28-5.26"/><path class="cls-2" d="M233.77,192.38a14,14,0,0,1,5.41,5.38,15.56,15.56,0,0,1,1.95,7.81,15.87,15.87,0,0,1-1.95,7.9,13.84,13.84,0,0,1-5.41,5.4,16.77,16.77,0,0,1-15.62,0,13.75,13.75,0,0,1-5.4-5.4,15.87,15.87,0,0,1-1.95-7.9,15.56,15.56,0,0,1,1.95-7.81,13.89,13.89,0,0,1,5.4-5.38,16.84,16.84,0,0,1,15.62,0m-13.67,2.91a10.34,10.34,0,0,0-4,4.19,14,14,0,0,0,0,12.35,10.43,10.43,0,0,0,4,4.2,12.27,12.27,0,0,0,11.72,0,10.43,10.43,0,0,0,4-4.2,14,14,0,0,0,0-12.35,10.34,10.34,0,0,0-4-4.19,12.2,12.2,0,0,0-11.72,0"/><path class="cls-2" d="M279.52,184.11q4.25,3.7,4.25,10.43,0,7.13-4.25,11.06t-12,3.93h-7.18v11.15H249.87V180.41h17.69q7.71,0,12,3.7M272,199.54a6,6,0,0,0,1.75-4.66,5.77,5.77,0,0,0-1.75-4.51,7.19,7.19,0,0,0-5-1.57h-6.67v12.35h6.67a7.11,7.11,0,0,0,5-1.61"/><path class="cls-2" d="M310.08,192.16a10.36,10.36,0,0,1,3.62,8.3v20.22H303.64v-3.5c-2.06,2.64-5.19,4-9.36,4a11,11,0,0,1-7.79-2.67,9.23,9.23,0,0,1-2.84-7,8.33,8.33,0,0,1,3.08-6.89q3.06-2.47,8.81-2.53h8.1v-.35a4.11,4.11,0,0,0-1.52-3.44,6.89,6.89,0,0,0-4.39-1.21,17.78,17.78,0,0,0-4.4.63,26.33,26.33,0,0,0-4.91,1.84l-2.82-6.89a40.71,40.71,0,0,1,7.27-2.56,31.13,31.13,0,0,1,7.21-.83q6.44,0,10,3m-8.62,20.91a4.85,4.85,0,0,0,2.18-2.9v-2.7h-6.09q-4.31,0-4.31,3.21a3.17,3.17,0,0,0,1.13,2.56,4.6,4.6,0,0,0,3.07.95,7.27,7.27,0,0,0,4-1.12"/><path class="cls-2" d="M347.48,189.6v28.32a13.49,13.49,0,0,1-2.13,7.56,13.8,13.8,0,0,1-5.94,5,21.1,21.1,0,0,1-8.82,1.75,25.83,25.83,0,0,1-7.53-1.1,23.61,23.61,0,0,1-6.37-2.92l3.56-7.07a18.27,18.27,0,0,0,4.59,2.24,16.28,16.28,0,0,0,5,.8,8.51,8.51,0,0,0,5.46-1.6,5.31,5.31,0,0,0,2-4.37v-3.33a10.46,10.46,0,0,1-8.85,4.08,12.47,12.47,0,0,1-11.57-7.16,18.91,18.91,0,0,1-.06-15.54,12.29,12.29,0,0,1,4.62-5.17,12.74,12.74,0,0,1,6.78-1.84,12.33,12.33,0,0,1,5.2,1.07,10.14,10.14,0,0,1,3.88,3.07V189.6Zm-11.89,19.88a8.9,8.9,0,0,0,0-10.52,6.14,6.14,0,0,0-9.11,0,7.77,7.77,0,0,0-1.75,5.26,7.67,7.67,0,0,0,1.75,5.23,5.78,5.78,0,0,0,4.57,2,5.7,5.7,0,0,0,4.54-2"/><path class="cls-2" d="M375.4,191.24a14.5,14.5,0,0,1,6,5.57,17.43,17.43,0,0,1,0,16.66,14.5,14.5,0,0,1-6,5.57,21,21,0,0,1-17.81,0,14.3,14.3,0,0,1-5.95-5.57,17.65,17.65,0,0,1,0-16.66,14.3,14.3,0,0,1,5.95-5.57,20.92,20.92,0,0,1,17.81,0m-13.73,8.41a9.46,9.46,0,0,0,0,11.21,6.07,6.07,0,0,0,4.82,2.12,6.17,6.17,0,0,0,4.89-2.12,8.35,8.35,0,0,0,1.84-5.63,8.18,8.18,0,0,0-1.87-5.58,6.18,6.18,0,0,0-4.86-2.12,6.07,6.07,0,0,0-4.82,2.12"/><polygon class="cls-2" points="126.1 226.29 134.03 226.29 134.03 227.94 131 227.94 131 236.01 129.13 236.01 129.13 227.94 126.1 227.94 126.1 226.29"/><path class="cls-2" d="M144.47,228.58V236h-1.82v-1.37a2.67,2.67,0,0,1-2.59,1.44,2.58,2.58,0,0,1-2-.76,2.92,2.92,0,0,1-.72-2.09v-4.65h1.82v4.13a1.71,1.71,0,0,0,.42,1.22,1.54,1.54,0,0,0,1.18.44,1.7,1.7,0,0,0,1.36-.61,2.29,2.29,0,0,0,.5-1.51v-3.67Z"/><path class="cls-2" d="M161.9,229a3.21,3.21,0,0,1,1.24,1.34,4.7,4.7,0,0,1,0,3.95,3.14,3.14,0,0,1-1.23,1.32,3.44,3.44,0,0,1-1.83.47,3.32,3.32,0,0,1-1.48-.32,2.83,2.83,0,0,1-1.05-1v3.91h-1.81V228.58h1.81v1.22a2.76,2.76,0,0,1,1-1,3.15,3.15,0,0,1,1.47-.33,3.48,3.48,0,0,1,1.84.48m-.74,4.89a2.54,2.54,0,0,0,0-3.23,2,2,0,0,0-1.5-.62,2,2,0,0,0-1.52.62,2.55,2.55,0,0,0,0,3.24,2,2,0,0,0,1.52.63,1.93,1.93,0,0,0,1.5-.64"/><path class="cls-2" d="M172.32,236v-.9a2.57,2.57,0,0,1-1,.74,3.84,3.84,0,0,1-1.4.25,3,3,0,0,1-1.37-.3,2.2,2.2,0,0,1-1.23-2,2,2,0,0,1,.73-1.63,3.29,3.29,0,0,1,2.09-.61h2.16v-.19a1.27,1.27,0,0,0-.42-1,1.93,1.93,0,0,0-1.26-.36,4.35,4.35,0,0,0-2.21.7l-.65-1.25a8.16,8.16,0,0,1,1.59-.71,6,6,0,0,1,1.68-.21,3.32,3.32,0,0,1,2.24.69,2.56,2.56,0,0,1,.82,2V236Zm-.64-1.67a1.27,1.27,0,0,0,.62-.91v-.67h-1.87a2,2,0,0,0-1.07.22.77.77,0,0,0-.33.7.9.9,0,0,0,.35.75,1.57,1.57,0,0,0,1,.28,2.41,2.41,0,0,0,1.33-.37"/><path class="cls-2" d="M185.7,228.58v6.73a3.48,3.48,0,0,1-.48,1.84,3.12,3.12,0,0,1-1.36,1.2,4.58,4.58,0,0,1-2.05.43,5.44,5.44,0,0,1-3.14-1l.72-1.3a3.88,3.88,0,0,0,2.32.78,2.34,2.34,0,0,0,1.59-.52,1.74,1.74,0,0,0,.59-1.4v-.88a2.4,2.4,0,0,1-1,.87,3.06,3.06,0,0,1-1.39.3,3.27,3.27,0,0,1-1.72-.45,3.12,3.12,0,0,1-1.17-1.27,4,4,0,0,1-.42-1.87,3.9,3.9,0,0,1,.42-1.84,3,3,0,0,1,1.17-1.24,3.27,3.27,0,0,1,1.72-.45,3,3,0,0,1,1.38.31,2.41,2.41,0,0,1,1,.86v-1.11Zm-2.35,5a2.45,2.45,0,0,0,0-3.07,1.88,1.88,0,0,0-1.43-.59,1.83,1.83,0,0,0-1.42.6,2.34,2.34,0,0,0,0,3.06,1.86,1.86,0,0,0,1.42.59,1.88,1.88,0,0,0,1.43-.59"/><path class="cls-2" d="M195.89,229a3.38,3.38,0,0,1,1.38,1.32,3.87,3.87,0,0,1,.5,2,4,4,0,0,1-.5,2,3.4,3.4,0,0,1-1.38,1.33,4.14,4.14,0,0,1-2,.47,4.29,4.29,0,0,1-2.06-.47,3.4,3.4,0,0,1-1.38-1.33,3.94,3.94,0,0,1-.49-2,3.87,3.87,0,0,1,.49-2A3.38,3.38,0,0,1,191.8,229a4.29,4.29,0,0,1,2.06-.48,4.14,4.14,0,0,1,2,.48m-3.56,1.69a2.3,2.3,0,0,0-.59,1.63,2.27,2.27,0,0,0,.59,1.62,2,2,0,0,0,1.53.63,2,2,0,0,0,1.5-.63,2.27,2.27,0,0,0,.58-1.62,2.29,2.29,0,0,0-.58-1.63,2,2,0,0,0-1.5-.62,2,2,0,0,0-1.53.62"/><path class="cls-2" d="M212.69,236v-.9a2.5,2.5,0,0,1-1,.74,3.84,3.84,0,0,1-1.4.25,3,3,0,0,1-1.38-.3A2.29,2.29,0,0,1,208,235a2.24,2.24,0,0,1-.31-1.18,2,2,0,0,1,.73-1.63,3.29,3.29,0,0,1,2.09-.61h2.17v-.19a1.28,1.28,0,0,0-.43-1A1.93,1.93,0,0,0,211,230a4.35,4.35,0,0,0-2.21.7l-.65-1.25a8.43,8.43,0,0,1,1.59-.71,6,6,0,0,1,1.68-.21,3.32,3.32,0,0,1,2.24.69,2.45,2.45,0,0,1,.81,2l0,4.86Zm-.64-1.67a1.31,1.31,0,0,0,.63-.91v-.67H210.8a2,2,0,0,0-1.07.22.77.77,0,0,0-.33.7.9.9,0,0,0,.35.75,1.57,1.57,0,0,0,1,.28,2.41,2.41,0,0,0,1.33-.37"/><rect class="cls-2" x="219.35" y="225.7" width="1.8" height="10.31"/><path class="cls-2" d="M234.06,225.69a1,1,0,0,1,.29.78,1,1,0,0,1-.29.76,1,1,0,0,1-1.47,0,1,1,0,0,1-.29-.76,1,1,0,0,1,.29-.78,1,1,0,0,1,1.47,0m-1.62,2.89h1.8V236h-1.8Z"/><path class="cls-2" d="M245.75,229.28a2.91,2.91,0,0,1,.73,2.09V236h-1.81V231.9a1.66,1.66,0,0,0-.45-1.23,1.63,1.63,0,0,0-1.21-.45,1.83,1.83,0,0,0-1.42.61,2.24,2.24,0,0,0-.52,1.53V236h-1.81v-7.43h1.81V230a2.81,2.81,0,0,1,2.66-1.46,2.67,2.67,0,0,1,2,.77"/><path class="cls-2" d="M254.58,230.09a3.57,3.57,0,0,0-1.06-.18,1.49,1.49,0,0,0-.73.16.54.54,0,0,0-.27.5.57.57,0,0,0,.34.53,4.9,4.9,0,0,0,1.08.4,11.88,11.88,0,0,1,1.28.46,2.45,2.45,0,0,1,.86.68,1.82,1.82,0,0,1,.37,1.19,1.92,1.92,0,0,1-.83,1.67,3.59,3.59,0,0,1-2.1.58,5.28,5.28,0,0,1-1.68-.27,3.82,3.82,0,0,1-1.39-.77l.62-1.26a3.77,3.77,0,0,0,1.2.67,4,4,0,0,0,1.32.24,1.56,1.56,0,0,0,.8-.17.56.56,0,0,0,.3-.52.63.63,0,0,0-.35-.58,6.17,6.17,0,0,0-1.13-.44,9.24,9.24,0,0,1-1.22-.43,2.24,2.24,0,0,1-.82-.66,1.78,1.78,0,0,1-.35-1.14,2,2,0,0,1,.8-1.68,3.36,3.36,0,0,1,2-.57,5.13,5.13,0,0,1,1.45.2,4.5,4.5,0,0,1,1.27.59l-.65,1.3a5.33,5.33,0,0,0-1.12-.5"/><path class="cls-2" d="M265.12,235.56a3.52,3.52,0,0,1-1.86.54,2.25,2.25,0,0,1-1.57-.56,2.15,2.15,0,0,1-.61-1.67V230.2h-1l0-1.31h1.06v-2h1.79v2H265v1.31h-2.13v3.35a1.06,1.06,0,0,0,.2.73.71.71,0,0,0,.58.22,2.53,2.53,0,0,0,1.06-.31Z"/><path class="cls-2" d="M273.71,236v-.9a2.5,2.5,0,0,1-1,.74,3.84,3.84,0,0,1-1.4.25,3,3,0,0,1-1.37-.3A2.16,2.16,0,0,1,269,235a2.24,2.24,0,0,1-.32-1.18,2,2,0,0,1,.74-1.63,3.26,3.26,0,0,1,2.08-.61h2.17v-.19a1.25,1.25,0,0,0-.43-1A1.92,1.92,0,0,0,272,230a4.32,4.32,0,0,0-2.21.7l-.66-1.25a8.49,8.49,0,0,1,1.6-.71,5.9,5.9,0,0,1,1.67-.21,3.32,3.32,0,0,1,2.24.69,2.49,2.49,0,0,1,.82,2V236Zm-.64-1.67a1.31,1.31,0,0,0,.63-.91v-.67h-1.88a2,2,0,0,0-1.06.22.76.76,0,0,0-.34.7.93.93,0,0,0,.35.75,1.57,1.57,0,0,0,1,.28,2.39,2.39,0,0,0,1.33-.37"/><path class="cls-2" d="M286.79,229.28a2.91,2.91,0,0,1,.73,2.09V236H285.7V231.9a1.66,1.66,0,0,0-.44-1.23,1.63,1.63,0,0,0-1.21-.45,1.85,1.85,0,0,0-1.43.61,2.29,2.29,0,0,0-.52,1.53V236h-1.8v-7.43h1.8V230a2.83,2.83,0,0,1,2.67-1.46,2.68,2.68,0,0,1,2,.77"/><path class="cls-2" d="M296.68,235.56a3.52,3.52,0,0,1-1.86.54,2.25,2.25,0,0,1-1.57-.56,2.15,2.15,0,0,1-.61-1.67V230.2h-1.05v-1.31h1.06v-2h1.79v2h2.13v1.31h-2.13v3.35a1.06,1.06,0,0,0,.2.73.71.71,0,0,0,.58.22,2.53,2.53,0,0,0,1.06-.31Z"/><path class="cls-2" d="M306.58,229.54a4.13,4.13,0,0,1,.9,2.85,3.88,3.88,0,0,1,0,.54H302a2.1,2.1,0,0,0,.74,1.24,2.16,2.16,0,0,0,1.38.45,2.86,2.86,0,0,0,1.09-.21,2.5,2.5,0,0,0,.91-.62l1,1a3.75,3.75,0,0,1-1.36.95,4.58,4.58,0,0,1-1.77.33,4.09,4.09,0,0,1-2-.47,3.3,3.3,0,0,1-1.34-1.33,4.32,4.32,0,0,1,0-3.94A3.39,3.39,0,0,1,302,229a4,4,0,0,1,2-.48,3.36,3.36,0,0,1,2.67,1m-.75,2.18a1.8,1.8,0,0,0-.55-1.31,1.9,1.9,0,0,0-1.36-.48,1.92,1.92,0,0,0-1.33.48,2.17,2.17,0,0,0-.66,1.31Z"/><path class="cls-2" d="M116.51,212.5H86.17a2.27,2.27,0,0,1-2.27-2.27V199.67a2.28,2.28,0,0,1,2.27-2.28h30.34Z"/><path class="cls-3" d="M82.09,239H110a6.48,6.48,0,0,0,6.48-6.48V212.5H85.93a2,2,0,0,1-2-1.65Q77.28,216,69,221.42C75.22,227.47,79.6,233.3,82.09,239"/><path class="cls-3" d="M98.89,197.39h17.62V177a6.48,6.48,0,0,0-6.06-6.46c.73,8.82-3.12,17.6-11.56,26.87"/><path class="cls-4" d="M83,211.6a191.91,191.91,0,0,0-12.54-41.11H26.19c28,26.21,42.12,50.31,42.12,50.31h0l.65.62q8.33-5.44,15-10.57h0l-1,.76"/><path class="cls-3" d="M98.88,197.39h0c8.44-9.27,12.29-18,11.56-26.87h0c.73,8.83-3.12,17.61-11.56,26.88"/><path class="cls-5" d="M110.44,170.52c-.13,0-.27,0-.41,0H70.42A191.91,191.91,0,0,1,83,211.6l1-.76a1.5,1.5,0,0,1,0-.37V199.42a2,2,0,0,1,2-2H98.88c8.44-9.27,12.29-18,11.56-26.87"/><path class="cls-6" d="M16.37,177v8.49l.61.34.7.39,1.13.64.66.37.09,0,.1.06,1.06.6.56.32,1.82,1c.88.5,1.74,1,2.6,1.51l.53.31,2.55,1.51.07,0,2.44,1.47.44.26,2.46,1.5.12.07c.79.49,1.58,1,2.35,1.46l.27.16L40.71,200l.37.25,1.21.78.78.51.78.51,1.14.76.39.25c.49.33,1,.66,1.47,1h0A169.14,169.14,0,0,1,68.3,220.8h0s-14.1-24.1-42.12-50.31H22.85A6.49,6.49,0,0,0,16.37,177"/><path class="cls-3" d="M69,221.42h0c6.27,6.05,10.65,11.88,13.14,17.61h0C79.6,233.3,75.22,227.47,69,221.42"/><path class="cls-7" d="M50.46,232.69l-.7.4q-5.44,3.15-10.55,5.93H50.39c.11-2.18.12-4.29.07-6.33"/><path class="cls-3" d="M68.94,221.41h0l-.65-.62h0l.64.61"/><path class="cls-8" d="M42.29,201l.78.51-.78-.51"/><path class="cls-8" d="M20.72,187.92l.56.32-.56-.32"/><path class="cls-8" d="M43.85,202l1.14.76L43.85,202"/><path class="cls-8" d="M40.71,200l.37.25-.37-.25"/><path class="cls-8" d="M17,185.81l.7.39-.7-.39"/><path class="cls-8" d="M18.81,186.84l.66.37-.66-.37"/><path class="cls-9" d="M25.7,190.8c-.86-.5-1.72-1-2.6-1.51.86.5,1.72,1,2.56,1.49l0,0"/><path class="cls-9" d="M39.36,199.1l0,0,1.33.85c-1.24-.8-2.5-1.59-3.78-2.4l0,0,2.38,1.5"/><path class="cls-9" d="M19.56,187.26l.1.06-.1-.06"/><path class="cls-9" d="M43.07,201.5l.78.51-.78-.51"/><path class="cls-9" d="M41.08,200.21l1.21.78-1.21-.78"/><path class="cls-9" d="M31.22,194.08l.07,0-2.44-1.47.11.07,2.26,1.36"/><path class="cls-9" d="M36.59,197.36l.07,0c-.77-.49-1.56-1-2.35-1.46l.09.06,2.19,1.35"/><path class="cls-9" d="M28.75,192.6l0,0-2.55-1.51,0,0,2.48,1.47"/><path class="cls-9" d="M34.16,195.86l0,0-2.46-1.5.06,0,2.37,1.44"/><path class="cls-9" d="M68.94,221.41h0l-.64-.61h0l.64.61"/><path class="cls-9" d="M36.59,197.36,34.4,196l2.19,1.35"/><path class="cls-9" d="M34.16,195.86l-2.37-1.44,2.37,1.44"/><path class="cls-9" d="M39.36,199.1,37,197.6l2.38,1.5"/><path class="cls-9" d="M23.1,189.29c.86.5,1.72,1,2.56,1.49-.84-.5-1.7-1-2.56-1.49"/><path class="cls-9" d="M28.75,192.6l-2.48-1.47,2.48,1.47"/><path class="cls-10" d="M50.36,230.26a77.6,77.6,0,0,0-6.7-28.17c-7.89-2.31-15.32-4.15-22.26-5.58,2.31,8.27.62,16.43-5,24.88v11.15a6.47,6.47,0,0,0,5.25,6.36,6.26,6.26,0,0,0,1.23.12H39.26q5.09-2.78,10.51-5.9l.69-.4c0-.83-.06-1.65-.1-2.46"/><path class="cls-9" d="M31.22,194.08,29,192.72l2.26,1.36"/><path class="cls-9" d="M16.37,221.39v0Z"/><path class="cls-9" d="M17.15,220.18c-.23.37-.47.74-.72,1.12.25-.38.49-.75.72-1.12"/><path class="cls-9" d="M17.85,219c-.19.34-.39.67-.6,1,.21-.33.41-.66.6-1"/><path class="cls-9" d="M19.19,216.56l0,.06,0-.06"/><path class="cls-9" d="M17.25,220c0,.06-.07.11-.1.16s.07-.1.1-.16"/><path class="cls-9" d="M16.43,221.3l0,.06,0-.06"/><path class="cls-9" d="M17.93,218.9l-.08.12.08-.12"/><path class="cls-11" d="M21.46,210.62l0,.13a.5.5,0,0,0,0-.13"/><polyline class="cls-11" points="18.7 217.5 18.7 217.5 18.7 217.5 18.7 217.5"/><path class="cls-11" d="M22.33,201.66c0-.06,0-.12,0-.17,0-.34-.07-.67-.11-1,0-.13,0-.25-.05-.37,0-.33-.09-.65-.15-1,0-.12-.05-.25-.07-.38q-.09-.5-.21-1a.43.43,0,0,0,0-.11c-.09-.38-.18-.77-.29-1.16h0c-1.7-.35-3.38-.68-5-1v25.85l0,0,0,0h0c.19-.28.36-.55.54-.83l-.48.74.48-.75h0l.24-.38c0-.05.07-.1.1-.16.2-.33.41-.66.6-1l.08-.12c.27-.47.52-.94.77-1.4.16-.29.31-.59.46-.88l0-.06c.06-.14.12-.27.19-.41h0l.24-.5h0c0-.1.09-.2.14-.3s.07-.17.11-.25l.37-.87,0-.09h0l.06-.14,0,0c.13-.34.26-.68.38-1l0-.08h0l.06-.19,0-.08c.12-.34.23-.68.34-1,0-.09,0-.18.07-.27s.11-.38.17-.56c0,.11-.07.22-.1.33.06-.2.11-.4.16-.59l0,.12a2.5,2.5,0,0,0,.07-.26,2.68,2.68,0,0,0,.07-.27c.08-.32.15-.63.22-1,0-.06,0-.13,0-.19.07-.34.14-.67.19-1a1.85,1.85,0,0,0,0-.23c.05-.34.1-.67.14-1,0-.12,0-.23,0-.35l.09-1c0-.11,0-.21,0-.31a25.57,25.57,0,0,0,0-3.39"/><path class="cls-11" d="M19.62,215.65l-.24.5.24-.5"/><path class="cls-12" d="M31.29,194.12l.44.26-.44-.26"/><path class="cls-12" d="M34.19,195.88l.12.07-.12-.07"/><path class="cls-12" d="M20.72,187.92l-1.06-.6.25.14.81.46"/><path class="cls-12" d="M36.66,197.41l.27.16-.27-.16"/><path class="cls-12" d="M28.78,192.62l.07,0-.07,0"/><path class="cls-12" d="M19.56,187.26l-.09,0,0,0Z"/><path class="cls-12" d="M17.68,186.2l1.13.64-1.13-.64"/><path class="cls-12" d="M16.57,185.58l.41.23-.61-.34.2.11"/><path class="cls-12" d="M21.28,188.24l1.82,1-1.82-1"/><path class="cls-12" d="M25.7,190.8l.53.31-.53-.31"/><path class="cls-12" d="M19.5,187.23l0,0-.66-.37-1.13-.64-.7-.39-.41-.23,2.93,1.65"/><path class="cls-12" d="M23.1,189.29l-1.82-1-.56-.32-.81-.46,3.19,1.83"/><path class="cls-12" d="M26.27,191.13l0,0-.53-.31,0,0,.61.35"/><path class="cls-12" d="M31.79,194.42l-.06,0-.44-.26-.07,0,.57.34"/><path class="cls-12" d="M16.37,185.47h0l.2.11-.2-.11"/><path class="cls-12" d="M29,192.72l-.11-.07-.07,0,0,0,.21.12"/><path class="cls-12" d="M19.91,187.46l-.25-.14-.1-.06-.06,0,.41.23"/><path class="cls-12" d="M39.38,199.12l0,0,0,0"/><path class="cls-12" d="M37,197.6l0,0-.27-.16-.07,0,.39.23"/><path class="cls-12" d="M34.4,196l-.09-.06-.12-.07,0,0,.24.15"/><path class="cls-12" d="M44.23,202.27l-.34-.23.34.23h0"/><path class="cls-12" d="M21.41,196.51h0A36.68,36.68,0,0,0,16.37,186h0a36.64,36.64,0,0,1,5,10.56"/><path class="cls-10" d="M16.37,186v9.56c1.65.3,3.33.63,5,1a36.89,36.89,0,0,0-5-10.54"/><path class="cls-12" d="M50.45,232.73l1.52-.88Z"/><path class="cls-12" d="M59.85,227.15q4.77-2.91,9.09-5.73h0q-4.32,2.82-9.09,5.74"/><path class="cls-12" d="M57.31,228.69,55.17,230l2.14-1.28"/><path class="cls-12" d="M59.76,227.21l-2.19,1.32,2.19-1.32"/><path class="cls-12" d="M54.28,230.49c-.44.27-.89.53-1.34.79.45-.26.9-.52,1.34-.79"/><polyline class="cls-12" points="62.02 215.26 62.02 215.26 62.02 215.26"/><path class="cls-12" d="M52.94,231.28l-1,.57,1-.57"/><path class="cls-12" d="M57.57,228.53l-.26.16.26-.16"/><path class="cls-12" d="M59.85,227.15l-.09.06.09-.06"/><path class="cls-12" d="M55.17,230l-.89.52.89-.52"/><path class="cls-12" d="M43.5,201.78h0l.39.26-.39-.26"/><path class="cls-13" d="M68.3,220.8q-2.88-2.73-6.28-5.54h0a210,210,0,0,0-17.79-13l-.57-.16a77.46,77.46,0,0,1,6.69,28.17c0,.81.08,1.63.1,2.46l1.52-.88,1-.57,1.34-.79.89-.52,2.14-1.28.26-.16,2.19-1.32.09-.06q4.77-2.93,9.09-5.74l-.64-.61"/><path class="cls-14" d="M68.94,221.42q-4.32,2.82-9.09,5.73l-.09.06-2.19,1.32-.26.16L55.17,230l-.89.52-1.34.79-1,.57-1.51.88q.07,3-.07,6.3H82.08c-2.49-5.73-6.87-11.56-13.14-17.61"/><path class="cls-15" d="M43.89,202l-.39-.25c-1.34-.89-2.71-1.77-4.12-2.67h0L37,197.6l-.39-.24L34.4,196l-.24-.15-2.37-1.44-.57-.34L29,192.72l-.21-.12-2.48-1.47-.61-.35c-.84-.5-1.7-1-2.56-1.49l-3.19-1.83-.41-.23-2.93-1.65-.2-.11V186h0v0a36.89,36.89,0,0,1,5,10.54h0c7,1.44,14.36,3.28,22.25,5.59l.57.16-.34-.22m-26.4-14.32a36.31,36.31,0,0,1,1.91,3.5v0a39.51,39.51,0,0,0-1.92-3.52"/><path class="cls-16" d="M113.23,207.94h-22a.61.61,0,0,1-.61-.62v-4.75a.61.61,0,0,1,.61-.61h22a.61.61,0,0,1,.61.61v4.75a.61.61,0,0,1-.61.62"/><path class="cls-17" d="M102.48,184.74H78.71a.55.55,0,0,1-.55-.55V179.7a.55.55,0,0,1,.55-.54h23.77a.54.54,0,0,1,.55.54v4.49a.55.55,0,0,1-.55.55"/><path class="cls-2" d="M351,234.75h-.7V236h-.4v-3h1a1.21,1.21,0,0,1,.78.23.82.82,0,0,1,.27.67.81.81,0,0,1-.15.48.89.89,0,0,1-.42.31l.7,1.27v0h-.42Zm-.7-.33h.6a.7.7,0,0,0,.47-.15.51.51,0,0,0,.17-.4.54.54,0,0,0-.16-.43.69.69,0,0,0-.48-.15h-.6Z"/><rect class="cls-2" x="352.51" y="232.97" width="0.39" height="2.98"/><polygon class="cls-2" points="355.27 234.63 354.01 234.63 354.01 235.95 353.62 235.95 353.62 232.97 355.47 232.97 355.47 233.29 354.01 233.29 354.01 234.31 355.27 234.31 355.27 234.63"/><path class="cls-2" d="M355.87,235.75a.25.25,0,0,1,.06-.16.24.24,0,0,1,.17-.07.25.25,0,0,1,.18.07.25.25,0,0,1,.06.16.21.21,0,0,1-.06.16.21.21,0,0,1-.18.07.21.21,0,0,1-.17-.07.21.21,0,0,1-.06-.16m0-1.81a.25.25,0,0,1,.06-.16.25.25,0,0,1,.18-.07.24.24,0,0,1,.17.07.25.25,0,0,1,.06.16.21.21,0,0,1-.06.16.24.24,0,0,1-.17.07.25.25,0,0,1-.18-.07.21.21,0,0,1-.06-.16"/><path class="cls-2" d="M359.25,233h.39v2.11a.87.87,0,0,1-.25.67,1.15,1.15,0,0,1-1.38,0,.81.81,0,0,1-.25-.64h.39a.57.57,0,0,0,.14.4.54.54,0,0,0,.41.14.57.57,0,0,0,.4-.15.59.59,0,0,0,.15-.43Z"/><rect class="cls-2" x="360.04" y="234.53" width="1" height="0.31"/><path class="cls-2" d="M363,235h.42v.31H363V236h-.38v-.69h-1.36V235l1.34-2.07h.4Zm-1.31,0h.93v-1.46l0,.08Z"/><polygon class="cls-2" points="364.98 235.95 364.6 235.95 364.6 233.43 363.83 233.71 363.83 233.36 364.92 232.95 364.98 232.95 364.98 235.95"/><path class="cls-2" d="M368,236h-2v-.27l1-1.15a2.59,2.59,0,0,0,.32-.42.69.69,0,0,0,.09-.34.56.56,0,0,0-.14-.38.52.52,0,0,0-.38-.15.57.57,0,0,0-.44.16.61.61,0,0,0-.16.45H366a.87.87,0,0,1,.27-.67,1,1,0,0,1,.71-.25.92.92,0,0,1,.65.22.72.72,0,0,1,.25.58,1.75,1.75,0,0,1-.56,1.05l-.8.86H368Z"/><path class="cls-2" d="M370.25,233.75a.69.69,0,0,1-.11.4.94.94,0,0,1-.32.27.83.83,0,0,1,.37.29.77.77,0,0,1,.14.44.78.78,0,0,1-.27.62,1,1,0,0,1-.68.22,1,1,0,0,1-.69-.23.83.83,0,0,1-.13-1,.77.77,0,0,1,.37-.29.8.8,0,0,1-.32-.28.71.71,0,0,1-.11-.39.78.78,0,0,1,.24-.6.89.89,0,0,1,.64-.22.88.88,0,0,1,.63.22.78.78,0,0,1,.24.6m-.3,1.39a.58.58,0,0,0-.16-.41.61.61,0,0,0-.42-.16.58.58,0,0,0-.41.16.56.56,0,0,0-.15.41.54.54,0,0,0,.15.4.57.57,0,0,0,.42.15.56.56,0,0,0,.41-.15.51.51,0,0,0,.16-.4m-.57-1.9a.53.53,0,0,0-.37.14.59.59,0,0,0,0,.74.46.46,0,0,0,.37.14.45.45,0,0,0,.36-.14.5.5,0,0,0,.14-.37.53.53,0,0,0-.14-.37.52.52,0,0,0-.36-.14"/><path class="cls-2" d="M371,234.46l.15-1.49h1.53v.35h-1.21l-.09.81a1,1,0,0,1,.5-.13.83.83,0,0,1,.65.27,1.07,1.07,0,0,1,.24.73,1.06,1.06,0,0,1-.25.73.91.91,0,0,1-.7.27,1,1,0,0,1-.64-.22.87.87,0,0,1-.29-.61h.36a.55.55,0,0,0,.18.38.56.56,0,0,0,.39.14.52.52,0,0,0,.42-.18.78.78,0,0,0,.15-.5.69.69,0,0,0-.17-.48.51.51,0,0,0-.43-.19.65.65,0,0,0-.39.11l-.1.08Z"/><path class="cls-2" d="M375,233.75a.7.7,0,0,1-.12.4.82.82,0,0,1-.31.27.86.86,0,0,1,.36.29.7.7,0,0,1,.14.44.81.81,0,0,1-.26.62,1,1,0,0,1-.69.22,1,1,0,0,1-.69-.23.79.79,0,0,1-.26-.61.77.77,0,0,1,.14-.44.74.74,0,0,1,.36-.29.77.77,0,0,1-.31-.28.65.65,0,0,1-.12-.39.78.78,0,0,1,.24-.6.92.92,0,0,1,.64-.22.91.91,0,0,1,.64.22.78.78,0,0,1,.24.6m-.31,1.39a.54.54,0,0,0-.16-.41.61.61,0,0,0-.82,0,.53.53,0,0,0-.16.41.54.54,0,0,0,.15.4.66.66,0,0,0,.84,0,.54.54,0,0,0,.15-.4m-.57-1.9a.49.49,0,0,0-.36.14.56.56,0,0,0,0,.74.45.45,0,0,0,.36.14.48.48,0,0,0,.37-.14.51.51,0,0,0-.37-.88"/><path class="cls-2" d="M377,234.64a.89.89,0,0,1-.28.23.74.74,0,0,1-.36.09.8.8,0,0,1-.45-.13.88.88,0,0,1-.3-.36,1.37,1.37,0,0,1,0-1.05.83.83,0,0,1,.32-.37,1,1,0,0,1,.49-.12.83.83,0,0,1,.7.33,1.44,1.44,0,0,1,.25.9v.11a1.91,1.91,0,0,1-.34,1.27,1.34,1.34,0,0,1-1,.42h-.07v-.33H376a1,1,0,0,0,.72-.24,1,1,0,0,0,.27-.75m-.58,0a.59.59,0,0,0,.35-.12.65.65,0,0,0,.24-.28v-.16a1,1,0,0,0-.17-.6.48.48,0,0,0-.41-.24.51.51,0,0,0-.4.19.81.81,0,0,0-.15.51.8.8,0,0,0,.15.5.43.43,0,0,0,.39.2"/><path class="cls-2" d="M379.33,234.64a.89.89,0,0,1-.28.23.75.75,0,0,1-.37.09.85.85,0,0,1-.45-.13.94.94,0,0,1-.29-.36,1.26,1.26,0,0,1,0-1.05.83.83,0,0,1,.32-.37,1,1,0,0,1,.49-.12.84.84,0,0,1,.7.33,1.44,1.44,0,0,1,.25.9v.11a1.91,1.91,0,0,1-.34,1.27,1.34,1.34,0,0,1-1,.42h-.08v-.33h.08a1,1,0,0,0,.72-.24,1.08,1.08,0,0,0,.28-.75m-.59,0a.6.6,0,0,0,.36-.12.7.7,0,0,0,.23-.28v-.16a1,1,0,0,0-.16-.6.49.49,0,0,0-.41-.24.5.5,0,0,0-.4.19.81.81,0,0,0-.15.51.8.8,0,0,0,.14.5.45.45,0,0,0,.39.2"/><rect class="cls-2" x="380.06" y="234.53" width="1" height="0.31"/><path class="cls-2" d="M383.2,233.75a.7.7,0,0,1-.12.4.82.82,0,0,1-.31.27,1,1,0,0,1,.37.29.76.76,0,0,1,.13.44.77.77,0,0,1-.26.62,1,1,0,0,1-.69.22,1,1,0,0,1-.69-.23.79.79,0,0,1-.26-.61.84.84,0,0,1,.13-.44.82.82,0,0,1,.37-.29.77.77,0,0,1-.31-.28.65.65,0,0,1-.12-.39.78.78,0,0,1,.24-.6.92.92,0,0,1,.64-.22.91.91,0,0,1,.64.22.78.78,0,0,1,.24.6m-.31,1.39a.54.54,0,0,0-.16-.41.61.61,0,0,0-.82,0,.53.53,0,0,0-.16.41.54.54,0,0,0,.15.4.66.66,0,0,0,.84,0,.54.54,0,0,0,.15-.4m-.57-1.9a.49.49,0,0,0-.36.14.56.56,0,0,0,0,.74.45.45,0,0,0,.36.14.44.44,0,0,0,.36-.14.46.46,0,0,0,.14-.37.53.53,0,0,0-.14-.37.49.49,0,0,0-.36-.14"/></svg>